ply
format ascii 1.0
comment Created by Blender 2.76 (sub 0) - www.blender.org, source file: 'gizmoPosX.blend'
element vertex 45
property float x
property float y
property float z
property float nx
property float ny
property float nz
property uchar red
property uchar green
property uchar blue
element face 32
property list uchar uint vertex_indices
end_header
-1.000000 0.270831 0.270831 -1.000000 0.000000 0.000000 255 0 0
-1.000000 0.270831 -0.270831 -1.000000 0.000000 0.000000 255 0 0
-1.000000 -0.270831 -0.270831 -1.000000 0.000000 0.000000 255 0 0
50.000000 0.270831 0.270831 0.000000 1.000000 0.000000 255 0 0
50.000000 0.270831 -0.270831 0.000000 1.000000 0.000000 255 0 0
-1.000000 0.270831 -0.270831 0.000000 1.000000 0.000000 255 0 0
-1.000000 -0.270831 0.270831 0.000000 -1.000000 0.000000 255 0 0
-1.000000 -0.270831 -0.270831 0.000000 -1.000000 0.000000 255 0 0
50.000000 -0.270831 -0.270831 0.000000 -1.000000 0.000000 255 0 0
-1.000000 0.270831 -0.270831 0.000000 0.000000 -1.000000 255 0 0
50.000000 0.270831 -0.270831 0.000000 0.000000 -1.000000 255 0 0
50.000000 -0.270831 -0.270831 0.000000 0.000000 -1.000000 255 0 0
50.000000 0.270831 0.270831 0.000000 0.000000 1.000000 255 0 0
-1.000000 0.270831 0.270831 0.000000 0.000000 1.000000 255 0 0
-1.000000 -0.270831 0.270831 0.000000 0.000000 1.000000 255 0 0
50.530624 2.563860 4.440742 -0.471358 0.440962 0.763756 255 0 0
60.786076 0.000002 0.000001 0.999969 0.000000 0.000000 255 0 0
50.530624 4.440739 2.563866 -0.471358 0.763756 0.440962 255 0 0
50.530624 5.127726 0.000001 -0.471358 0.881924 0.000000 255 0 0
50.530624 4.440741 -2.563862 -0.471358 0.763756 -0.440962 255 0 0
50.530624 -0.000002 5.127725 -0.471358 0.000000 0.881924 255 0 0
50.530624 -2.563864 4.440739 -0.471358 -0.440962 0.763756 255 0 0
50.530624 -4.440741 2.563861 -0.471358 -0.763756 0.440962 255 0 0
50.530624 -5.127725 -0.000002 -0.471358 -0.881924 0.000000 255 0 0
50.530624 -4.440739 -2.563863 -0.471358 -0.763756 -0.440962 255 0 0
50.530624 -2.563862 -4.440741 -0.471358 -0.440962 -0.763756 255 0 0
50.530624 0.000001 -5.127726 -0.471358 0.000000 -0.881924 255 0 0
50.530624 2.563864 -4.440740 -0.471358 0.440962 -0.763756 255 0 0
50.530624 -4.440739 -2.563863 -1.000000 0.000000 -0.000000 255 0 0
50.530624 -4.440741 2.563861 -1.000000 0.000000 -0.000000 255 0 0
50.530624 4.440739 2.563866 -1.000000 0.000000 -0.000000 255 0 0
-1.000000 -0.270831 0.270831 -1.000000 0.000000 0.000000 255 0 0
-1.000000 0.270831 0.270831 0.000000 1.000000 -0.000000 255 0 0
50.000000 -0.270831 0.270831 0.000000 -1.000000 0.000000 255 0 0
-1.000000 -0.270831 -0.270831 -0.000000 -0.000000 -1.000000 255 0 0
50.000000 -0.270831 0.270831 -0.000000 0.000000 1.000000 255 0 0
50.530624 5.127726 0.000001 -1.000000 0.000000 0.000000 255 0 0
50.530624 4.440741 -2.563862 -1.000000 0.000000 0.000000 255 0 0
50.530624 2.563864 -4.440740 -1.000000 0.000000 0.000000 255 0 0
50.530624 0.000001 -5.127726 -1.000000 0.000000 0.000000 255 0 0
50.530624 -2.563862 -4.440741 -1.000000 0.000000 -0.000000 255 0 0
50.530624 -5.127725 -0.000002 -1.000000 0.000000 -0.000000 255 0 0
50.530624 -2.563864 4.440739 -1.000000 0.000000 0.000000 255 0 0
50.530624 -0.000002 5.127725 -1.000000 0.000000 0.000000 255 0 0
50.530624 2.563860 4.440742 -1.000000 0.000000 0.000000 255 0 0
3 0 1 2
3 3 4 5
3 6 7 8
3 9 10 11
3 12 13 14
3 15 16 17
3 18 16 19
3 20 16 15
3 21 16 20
3 22 16 21
3 23 16 22
3 24 16 23
3 25 16 24
3 26 16 25
3 27 16 26
3 17 16 18
3 19 16 27
3 28 29 30
3 31 0 2
3 32 3 5
3 33 6 8
3 34 9 11
3 35 12 14
3 30 36 37
3 37 38 39
3 39 40 37
3 28 41 29
3 29 42 43
3 43 44 30
3 30 37 40
3 40 28 30
3 29 43 30
