ply
format ascii 1.0
comment Created by Blender 2.76 (sub 0) - www.blender.org, source file: 'gizmoRotX.blend'
element vertex 454
property float x
property float y
property float z
property float nx
property float ny
property float nz
property uchar red
property uchar green
property uchar blue
element face 256
property list uchar uint vertex_indices
end_header
-1.890001 -61.552998 -12.243719 -0.718772 0.681845 0.135624 255 0 0
1.889999 -61.552998 -12.243717 0.718772 0.681845 0.135624 255 0 0
1.890000 -57.981636 -24.016857 0.718772 0.642293 0.266030 255 0 0
-1.890001 34.866974 52.182117 -0.718772 -0.386242 -0.578051 255 0 0
-1.890001 44.377243 44.377243 -0.718772 -0.491592 -0.491592 255 0 0
1.889999 44.377243 44.377243 0.718772 -0.491592 -0.491592 255 0 0
-1.890000 -57.981636 -24.016857 -0.718772 0.642293 0.266030 255 0 0
1.890000 -52.182072 -34.867043 0.718772 0.578051 0.386242 255 0 0
1.889999 34.866974 52.182117 0.718772 -0.386242 -0.578051 255 0 0
1.889999 24.016781 57.981667 0.718772 -0.266030 -0.642293 255 0 0
-1.889999 -0.000000 -62.758904 -0.718772 0.000000 0.695212 255 0 0
1.890001 0.000000 -62.758904 0.718772 0.000000 0.695212 255 0 0
1.890001 12.243654 -61.553001 0.718772 -0.135624 0.681845 255 0 0
-1.890000 -52.182072 -34.867043 -0.718772 0.578051 0.386242 255 0 0
1.890000 -44.377186 -44.377300 0.718772 0.491592 0.491592 255 0 0
-1.890001 24.016781 57.981667 -0.718772 -0.266030 -0.642293 255 0 0
1.889999 12.243641 61.553009 0.718772 -0.135624 -0.681845 255 0 0
-1.889999 12.243653 -61.553001 -0.718772 -0.135624 0.681845 255 0 0
1.890001 24.016794 -57.981659 0.718772 -0.266030 0.642293 255 0 0
-1.890000 -44.377186 -44.377300 -0.718772 0.491592 0.491592 255 0 0
1.890000 -34.866905 -52.182163 0.718772 0.386242 0.578051 255 0 0
-1.890002 12.243639 61.553009 -0.718772 -0.135624 -0.681845 255 0 0
1.889999 -0.000020 62.758904 0.718772 0.000000 -0.695212 255 0 0
-1.889999 24.016794 -57.981659 -0.718772 -0.266030 0.642293 255 0 0
1.890001 34.866982 -52.182114 0.718772 -0.386242 0.578051 255 0 0
-1.889999 -24.016705 -57.981697 -0.718772 0.266030 0.642293 255 0 0
-1.890000 -34.866905 -52.182163 -0.718772 0.386242 0.578051 255 0 0
-1.890002 -0.000021 62.758904 -0.718772 0.000000 -0.695212 255 0 0
1.889999 -12.243677 61.553001 0.718772 0.135624 -0.681845 255 0 0
-1.889999 34.866982 -52.182114 -0.718772 -0.386242 0.578051 255 0 0
1.890001 44.377243 -44.377243 0.718772 -0.491592 0.491592 255 0 0
-1.889999 -12.243561 -61.553020 -0.718772 0.135624 0.681845 255 0 0
1.890000 -24.016705 -57.981697 0.718772 0.266030 0.642293 255 0 0
-1.890002 -12.243679 61.553001 -0.718772 0.135624 -0.681845 255 0 0
1.889998 -24.016817 57.981644 0.718772 0.266030 -0.642293 255 0 0
-1.889999 44.377243 -44.377243 -0.718772 -0.491592 0.491592 255 0 0
1.890001 52.182117 -34.866974 0.718772 -0.578051 0.386242 255 0 0
1.890001 -12.243559 -61.553020 0.718772 0.135624 0.681845 255 0 0
-1.890002 -34.867004 52.182095 -0.718772 0.386242 -0.578051 255 0 0
-1.890002 -24.016817 57.981644 -0.718772 0.266030 -0.642293 255 0 0
-1.889999 57.981659 -24.016792 -0.718772 -0.642293 0.266030 255 0 0
-1.889999 52.182117 -34.866974 -0.718772 -0.578051 0.386242 255 0 0
1.889998 -34.867004 52.182095 0.718772 0.386242 -0.578051 255 0 0
1.889998 -44.377270 44.377213 0.718772 0.491592 -0.491592 255 0 0
1.890001 57.981659 -24.016792 0.718772 -0.642293 0.266030 255 0 0
1.890001 61.553001 -12.243654 0.718772 -0.681845 0.135624 255 0 0
-1.890002 -44.377270 44.377213 -0.718772 0.491592 -0.491592 255 0 0
1.889999 -52.182144 34.866936 0.718772 0.578051 -0.386242 255 0 0
-1.889999 61.553001 -12.243656 -0.718772 -0.681845 0.135624 255 0 0
1.890000 62.758904 -0.000004 0.718772 -0.695212 0.000000 255 0 0
-1.890002 -52.182144 34.866936 -0.718772 0.578051 -0.386242 255 0 0
1.889998 -57.981682 24.016743 0.718772 0.642293 -0.266030 255 0 0
-1.890000 62.758904 -0.000005 -0.718772 -0.695212 0.000000 255 0 0
1.890000 61.553009 12.243648 0.718772 -0.681845 -0.135624 255 0 0
-1.890001 -57.981682 24.016743 -0.718772 0.642293 -0.266030 255 0 0
1.889999 -61.553017 12.243601 0.718772 0.681845 -0.135624 255 0 0
-1.890000 61.553009 12.243647 -0.718772 -0.681845 -0.135624 255 0 0
1.890000 57.981663 24.016781 0.718772 -0.642293 -0.266030 255 0 0
-1.890001 -61.553017 12.243599 -0.718772 0.681845 -0.135624 255 0 0
1.889999 -62.758904 -0.000060 0.718772 0.695212 0.000000 255 0 0
-1.890000 57.981663 24.016781 -0.718772 -0.642293 -0.266030 255 0 0
1.890000 52.182117 34.866974 0.718772 -0.578051 -0.386242 255 0 0
-1.890001 -62.758904 -0.000061 -0.718772 0.695212 0.000000 255 0 0
-1.890000 52.182117 34.866974 -0.718772 -0.578051 -0.386242 255 0 0
1.889999 -12.243677 61.553001 0.999542 0.008780 -0.028944 255 0 0
1.950356 -12.634687 63.518726 0.999542 0.008780 -0.028944 255 0 0
1.950356 -24.783806 59.833317 0.999542 0.008780 -0.028944 255 0 0
-1.889999 61.553001 -12.243656 -0.999542 -0.028945 0.008780 255 0 0
-1.950358 63.518723 -12.634663 -0.999542 -0.028945 0.008780 255 0 0
-1.950358 59.833328 -24.783777 -0.999542 -0.028945 0.008780 255 0 0
1.889999 -0.000020 62.758904 0.999542 0.002965 -0.030101 255 0 0
1.950356 -0.000021 64.763138 0.999542 0.002965 -0.030101 255 0 0
1.950356 -12.634687 63.518726 0.999542 0.002965 -0.030101 255 0 0
1.890000 -52.182072 -34.867043 0.999542 0.026676 0.014258 255 0 0
1.890000 -57.981636 -24.016857 0.999542 0.026676 0.014258 255 0 0
1.950358 -59.833298 -24.783846 0.999542 0.026676 0.014258 255 0 0
1.890000 52.182117 34.866974 0.999542 -0.023381 -0.019188 255 0 0
1.950358 53.848583 35.980461 0.999542 -0.023381 -0.019188 255 0 0
1.950357 45.794453 45.794453 0.999542 -0.023381 -0.019188 255 0 0
1.889999 -0.000020 62.758904 0.999542 -0.002965 -0.030101 255 0 0
1.889999 12.243641 61.553009 0.999542 -0.002965 -0.030101 255 0 0
1.950357 12.634645 63.518730 0.999542 -0.002965 -0.030101 255 0 0
-1.889999 -0.000000 -62.758904 -0.999542 0.002965 0.030101 255 0 0
-1.950357 -0.000001 -64.763138 -0.999542 0.002965 0.030101 255 0 0
-1.950358 -12.634565 -63.518749 -0.999542 0.002965 0.030101 255 0 0
1.890000 61.553009 12.243648 0.999542 -0.028945 -0.008780 255 0 0
1.950359 63.518730 12.634655 0.999542 -0.028945 -0.008780 255 0 0
1.950358 59.833336 24.783768 0.999542 -0.028945 -0.008780 255 0 0
1.889999 24.016781 57.981667 0.999542 -0.008780 -0.028945 255 0 0
1.950357 24.783768 59.833344 0.999542 -0.008780 -0.028945 255 0 0
1.950357 12.634645 63.518730 0.999542 -0.008780 -0.028945 255 0 0
-1.889999 52.182117 -34.866974 -0.999542 -0.023381 0.019188 255 0 0
-1.950357 53.848583 -35.980461 -0.999542 -0.023381 0.019188 255 0 0
-1.950357 45.794453 -45.794453 -0.999542 -0.023381 0.019188 255 0 0
1.890000 62.758904 -0.000004 0.999542 -0.030102 -0.002965 255 0 0
1.950359 64.763138 -0.000004 0.999542 -0.030102 -0.002965 255 0 0
1.950359 63.518730 12.634655 0.999542 -0.030102 -0.002965 255 0 0
1.889999 34.866974 52.182117 0.999543 -0.014258 -0.026675 255 0 0
1.950357 35.980469 53.848579 0.999543 -0.014258 -0.026675 255 0 0
1.950357 24.783768 59.833344 0.999543 -0.014258 -0.026675 255 0 0
1.889999 -62.758904 -0.000060 0.999542 0.030101 0.002965 255 0 0
1.950357 -64.763138 -0.000061 0.999542 0.030101 0.002965 255 0 0
1.950357 -63.518723 -12.634727 0.999542 0.030101 0.002965 255 0 0
1.890000 62.758904 -0.000004 0.999542 -0.030101 0.002965 255 0 0
1.890001 61.553001 -12.243654 0.999542 -0.030101 0.002965 255 0 0
1.950359 63.518723 -12.634663 0.999542 -0.030101 0.002965 255 0 0
1.889999 44.377243 44.377243 0.999542 -0.019188 -0.023381 255 0 0
1.950357 45.794453 45.794453 0.999542 -0.019188 -0.023381 255 0 0
1.950357 35.980469 53.848579 0.999542 -0.019188 -0.023381 255 0 0
-1.889999 -24.016705 -57.981697 -0.999542 0.014258 0.026676 255 0 0
-1.950358 -24.783691 -59.833374 -0.999542 0.014258 0.026676 255 0 0
-1.950358 -35.980396 -53.848629 -0.999542 0.014258 0.026676 255 0 0
1.890001 57.981659 -24.016792 0.999542 -0.028945 0.008780 255 0 0
1.950359 59.833328 -24.783777 0.999542 -0.028945 0.008780 255 0 0
1.950359 63.518723 -12.634663 0.999542 -0.028945 0.008780 255 0 0
1.890000 57.981663 24.016781 0.999542 -0.026676 -0.014258 255 0 0
1.950358 59.833336 24.783768 0.999542 -0.026676 -0.014258 255 0 0
1.950358 53.848583 35.980461 0.999542 -0.026676 -0.014258 255 0 0
-1.889999 34.866982 -52.182114 -0.999542 -0.014258 0.026676 255 0 0
-1.950357 35.980473 -53.848572 -0.999542 -0.014258 0.026676 255 0 0
-1.950357 24.783779 -59.833321 -0.999542 -0.014258 0.026676 255 0 0
1.890001 57.981659 -24.016792 0.999542 -0.026675 0.014258 255 0 0
1.890001 52.182117 -34.866974 0.999542 -0.026675 0.014258 255 0 0
1.950359 53.848583 -35.980461 0.999542 -0.026675 0.014258 255 0 0
1.889998 -57.981682 24.016743 0.999542 0.028945 -0.008780 255 0 0
1.950357 -59.833359 24.783731 0.999542 0.028945 -0.008780 255 0 0
1.950357 -63.518738 12.634605 0.999542 0.028945 -0.008780 255 0 0
-1.890000 57.981663 24.016781 -0.999542 -0.026675 -0.014258 255 0 0
-1.890000 52.182117 34.866974 -0.999542 -0.026675 -0.014258 255 0 0
-1.950358 53.848583 35.980461 -0.999542 -0.026675 -0.014258 255 0 0
-1.890000 -44.377186 -44.377300 -0.999542 0.023381 0.019189 255 0 0
-1.950358 -45.794395 -45.794510 -0.999542 0.023381 0.019189 255 0 0
-1.950358 -53.848534 -35.980534 -0.999542 0.023381 0.019189 255 0 0
1.890000 -24.016705 -57.981697 0.999542 0.008780 0.028945 255 0 0
1.950359 -24.783691 -59.833374 0.999542 0.008780 0.028945 255 0 0
1.950359 -12.634565 -63.518749 0.999542 0.008780 0.028945 255 0 0
-1.889999 -0.000000 -62.758904 -0.999542 -0.002965 0.030102 255 0 0
-1.889999 12.243653 -61.553001 -0.999542 -0.002965 0.030102 255 0 0
-1.950357 12.634661 -63.518723 -0.999542 -0.002965 0.030102 255 0 0
1.890001 44.377243 -44.377243 0.999543 -0.019189 0.023381 255 0 0
1.890001 34.866982 -52.182114 0.999543 -0.019189 0.023381 255 0 0
1.950359 35.980473 -53.848572 0.999543 -0.019189 0.023381 255 0 0
1.889998 -44.377270 44.377213 0.999542 0.023381 -0.019188 255 0 0
1.950356 -45.794483 45.794430 0.999542 0.023381 -0.019188 255 0 0
1.950356 -53.848602 35.980431 0.999542 0.023381 -0.019188 255 0 0
-1.890000 61.553009 12.243647 -0.999542 -0.030102 -0.002965 255 0 0
-1.950358 63.518730 12.634655 -0.999542 -0.030102 -0.002965 255 0 0
-1.950358 64.763138 -0.000005 -0.999542 -0.030102 -0.002965 255 0 0
1.889998 -34.867004 52.182095 0.999542 0.019189 -0.023381 255 0 0
1.950356 -35.980503 53.848557 0.999542 0.019189 -0.023381 255 0 0
1.950356 -45.794483 45.794430 0.999542 0.019189 -0.023381 255 0 0
1.890000 -44.377186 -44.377300 0.999542 0.019189 0.023381 255 0 0
1.950358 -45.794395 -45.794510 0.999542 0.019189 0.023381 255 0 0
1.950359 -35.980396 -53.848629 0.999542 0.019189 0.023381 255 0 0
1.889998 -24.016817 57.981644 0.999542 0.014258 -0.026675 255 0 0
1.950356 -24.783806 59.833317 0.999542 0.014258 -0.026675 255 0 0
1.950356 -35.980503 53.848557 0.999542 0.014258 -0.026675 255 0 0
1.890001 12.243654 -61.553001 0.999542 -0.008780 0.028945 255 0 0
1.950359 12.634661 -63.518723 0.999542 -0.008780 0.028945 255 0 0
1.950359 24.783779 -59.833321 0.999542 -0.008780 0.028945 255 0 0
1.950356 -35.980503 53.848557 0.695914 -0.398938 0.597064 255 0 0
1.950356 -24.783806 59.833317 0.695914 -0.274789 0.663442 255 0 0
-1.950360 -24.783806 59.833317 -0.695914 -0.274789 0.663442 255 0 0
1.889999 -61.553017 12.243601 0.999542 0.030102 -0.002965 255 0 0
1.950357 -63.518738 12.634605 0.999542 0.030102 -0.002965 255 0 0
1.950357 -64.763138 -0.000061 0.999542 0.030102 -0.002965 255 0 0
1.950359 -0.000000 -64.763138 0.695914 0.000000 -0.718101 255 0 0
1.950359 -12.634565 -63.518749 0.695914 -0.140080 -0.704306 255 0 0
-1.950358 -12.634565 -63.518749 -0.695914 -0.140080 -0.704306 255 0 0
-1.890000 -34.866905 -52.182163 -0.999542 0.019189 0.023381 255 0 0
-1.950358 -35.980396 -53.848629 -0.999542 0.019189 0.023381 255 0 0
-1.950358 -45.794395 -45.794510 -0.999542 0.019189 0.023381 255 0 0
1.950359 53.848583 -35.980461 0.695914 0.597064 -0.398938 255 0 0
1.950359 45.794453 -45.794453 0.695914 0.507767 -0.507767 255 0 0
-1.950357 45.794453 -45.794453 -0.695914 0.507767 -0.507767 255 0 0
-1.889999 24.016794 -57.981659 -0.999542 -0.008780 0.028945 255 0 0
-1.950357 24.783779 -59.833321 -0.999542 -0.008780 0.028945 255 0 0
-1.950357 12.634661 -63.518723 -0.999542 -0.008780 0.028945 255 0 0
1.950356 -12.634687 63.518726 0.695914 -0.140080 0.704306 255 0 0
-1.950360 -12.634687 63.518726 -0.695914 -0.140080 0.704306 255 0 0
1.889999 -52.182144 34.866936 0.999542 0.026675 -0.014258 255 0 0
1.950356 -53.848602 35.980431 0.999542 0.026675 -0.014258 255 0 0
1.950357 -59.833359 24.783731 0.999542 0.026675 -0.014258 255 0 0
1.950359 -24.783691 -59.833374 0.695914 -0.274789 -0.663442 255 0 0
-1.950358 -24.783691 -59.833374 -0.695914 -0.274789 -0.663442 255 0 0
-1.890000 -52.182072 -34.867043 -0.999542 0.026676 0.014258 255 0 0
-1.950358 -53.848534 -35.980534 -0.999542 0.026676 0.014258 255 0 0
-1.950359 -59.833298 -24.783846 -0.999542 0.026676 0.014258 255 0 0
1.950359 35.980473 -53.848572 0.695914 0.398938 -0.597064 255 0 0
-1.890001 -61.552998 -12.243719 -0.999542 0.028945 0.008780 255 0 0
-1.890000 -57.981636 -24.016857 -0.999542 0.028945 0.008780 255 0 0
-1.950359 -59.833298 -24.783846 -0.999542 0.028945 0.008780 255 0 0
1.950356 -0.000021 64.763138 0.695914 0.000000 0.718101 255 0 0
-1.950360 -0.000022 64.763138 -0.695914 0.000000 0.718101 255 0 0
-1.890001 -61.552998 -12.243719 -0.999542 0.030102 0.002965 255 0 0
-1.950359 -63.518723 -12.634727 -0.999542 0.030102 0.002965 255 0 0
-1.950359 -64.763138 -0.000062 -0.999542 0.030102 0.002965 255 0 0
1.950359 -35.980396 -53.848629 0.695914 -0.398938 -0.597064 255 0 0
-1.950358 -35.980396 -53.848629 -0.695914 -0.398938 -0.597064 255 0 0
-1.890001 -62.758904 -0.000061 -0.999543 0.030102 -0.002965 255 0 0
-1.950359 -64.763138 -0.000062 -0.999543 0.030102 -0.002965 255 0 0
-1.950360 -63.518738 12.634605 -0.999543 0.030102 -0.002965 255 0 0
1.950359 24.783779 -59.833321 0.695914 0.274789 -0.663442 255 0 0
-1.950357 24.783779 -59.833321 -0.695914 0.274789 -0.663442 255 0 0
-1.890001 -61.553017 12.243599 -0.999542 0.028945 -0.008780 255 0 0
-1.950360 -63.518738 12.634605 -0.999542 0.028945 -0.008780 255 0 0
-1.950360 -59.833359 24.783731 -0.999542 0.028945 -0.008780 255 0 0
-1.890002 -12.243679 61.553001 -0.999543 0.008780 -0.028945 255 0 0
-1.890002 -24.016817 57.981644 -0.999543 0.008780 -0.028945 255 0 0
-1.950360 -24.783806 59.833317 -0.999543 0.008780 -0.028945 255 0 0
1.950356 -0.000021 64.763138 0.695914 0.000000 0.718101 254 1 0
1.950357 12.634645 63.518730 0.695914 0.140080 0.704306 255 0 0
-1.950360 12.634645 63.518730 -0.695914 0.140080 0.704306 255 0 0
-1.890001 -57.981682 24.016743 -0.999542 0.026676 -0.014259 255 0 0
-1.950360 -59.833359 24.783731 -0.999542 0.026676 -0.014259 255 0 0
-1.950360 -53.848602 35.980431 -0.999542 0.026676 -0.014259 255 0 0
-1.890002 -0.000021 62.758904 -0.999543 -0.002965 -0.030101 255 0 0
-1.950360 -0.000022 64.763138 -0.999543 -0.002965 -0.030101 255 0 0
-1.950360 12.634645 63.518730 -0.999543 -0.002965 -0.030101 255 0 0
1.950358 -45.794395 -45.794510 0.695914 -0.507767 -0.507767 255 0 0
-1.890002 -44.377270 44.377213 -0.999542 0.023381 -0.019189 255 0 0
-1.890002 -52.182144 34.866936 -0.999542 0.023381 -0.019189 255 0 0
-1.950360 -53.848602 35.980431 -0.999542 0.023381 -0.019189 255 0 0
-1.890002 12.243639 61.553009 -0.999542 -0.008780 -0.028945 255 0 0
-1.950360 12.634645 63.518730 -0.999542 -0.008780 -0.028945 255 0 0
-1.950359 24.783768 59.833344 -0.999542 -0.008780 -0.028945 255 0 0
1.950359 12.634661 -63.518723 0.695914 0.140080 -0.704306 255 0 0
-1.950357 12.634661 -63.518723 -0.695914 0.140080 -0.704306 255 0 0
-1.890002 -34.867004 52.182095 -0.999542 0.019188 -0.023381 255 0 0
-1.890002 -44.377270 44.377213 -0.999542 0.019188 -0.023381 255 0 0
-1.950360 -45.794483 45.794430 -0.999542 0.019188 -0.023381 255 0 0
-1.890001 24.016781 57.981667 -0.999542 -0.014258 -0.026676 255 0 0
-1.950359 24.783768 59.833344 -0.999542 -0.014258 -0.026676 255 0 0
-1.950359 35.980469 53.848579 -0.999542 -0.014258 -0.026676 255 0 0
1.950357 24.783768 59.833344 0.695914 0.274789 0.663442 255 0 0
-1.950359 24.783768 59.833344 -0.695914 0.274789 0.663442 255 0 0
-1.890002 -24.016817 57.981644 -0.999542 0.014258 -0.026676 255 0 0
-1.890002 -34.867004 52.182095 -0.999542 0.014258 -0.026676 255 0 0
-1.950360 -35.980503 53.848557 -0.999542 0.014258 -0.026676 255 0 0
-1.890001 44.377243 44.377243 -0.999542 -0.019189 -0.023382 255 0 0
-1.890001 34.866974 52.182117 -0.999542 -0.019189 -0.023382 255 0 0
-1.950359 35.980469 53.848579 -0.999542 -0.019189 -0.023382 255 0 0
1.950358 -53.848534 -35.980534 0.695914 -0.597064 -0.398938 255 0 0
-1.950358 -53.848534 -35.980534 -0.695914 -0.597064 -0.398938 255 0 0
-1.890002 -12.243679 61.553001 -0.999542 0.002965 -0.030101 255 0 0
-1.950360 -12.634687 63.518726 -0.999542 0.002965 -0.030101 255 0 0
-1.950360 -0.000022 64.763138 -0.999542 0.002965 -0.030101 255 0 0
-1.890000 52.182117 34.866974 -0.999542 -0.023381 -0.019189 255 0 0
-1.890001 44.377243 44.377243 -0.999542 -0.023381 -0.019189 255 0 0
-1.950359 45.794453 45.794453 -0.999542 -0.023381 -0.019189 255 0 0
-1.950357 -0.000001 -64.763138 -0.695914 0.000000 -0.718101 255 0 0
1.950357 45.794453 45.794453 0.695914 0.507767 0.507767 255 0 0
1.950358 53.848583 35.980461 0.695914 0.597064 0.398938 255 0 0
-1.950358 53.848583 35.980461 -0.695914 0.597064 0.398938 255 0 0
1.890001 -12.243559 -61.553020 0.999542 0.002965 0.030101 255 0 0
1.950359 -12.634565 -63.518749 0.999542 0.002965 0.030101 255 0 0
1.950359 -0.000000 -64.763138 0.999542 0.002965 0.030101 255 0 0
1.950357 35.980469 53.848579 0.695914 0.398938 0.597064 255 0 0
-1.950359 35.980469 53.848579 -0.695914 0.398938 0.597064 255 0 0
1.950358 59.833336 24.783768 0.695914 0.663442 0.274789 255 0 0
-1.950358 59.833336 24.783768 -0.695914 0.663442 0.274789 255 0 0
1.890001 52.182117 -34.866974 0.999542 -0.023381 0.019189 255 0 0
1.890001 44.377243 -44.377243 0.999542 -0.023381 0.019189 255 0 0
1.950359 45.794453 -45.794453 0.999542 -0.023381 0.019189 255 0 0
1.950358 -53.848534 -35.980534 0.695914 -0.597064 -0.398938 253 2 0
1.950358 -59.833298 -24.783846 0.695914 -0.663442 -0.274789 255 0 0
-1.950359 -59.833298 -24.783846 -0.695914 -0.663442 -0.274789 255 0 0
1.950357 -64.763138 -0.000061 0.695914 -0.718101 0.000000 255 0 0
1.950357 -63.518738 12.634605 0.695914 -0.704306 0.140080 255 0 0
-1.950360 -63.518738 12.634605 -0.695914 -0.704306 0.140080 255 0 0
-1.890000 57.981663 24.016781 -0.999542 -0.028945 -0.008780 255 0 0
-1.950358 59.833336 24.783768 -0.999542 -0.028945 -0.008780 255 0 0
-1.950358 63.518730 12.634655 -0.999542 -0.028945 -0.008780 255 0 0
-1.950359 45.794453 45.794453 -0.695914 0.507767 0.507767 255 0 0
1.950359 63.518730 12.634655 0.695914 0.704306 0.140080 255 0 0
-1.950358 63.518730 12.634655 -0.695914 0.704306 0.140080 255 0 0
1.890000 -34.866905 -52.182163 0.999542 0.014258 0.026676 255 0 0
1.950359 -35.980396 -53.848629 0.999542 0.014258 0.026676 255 0 0
1.950359 -24.783691 -59.833374 0.999542 0.014258 0.026676 255 0 0
1.950357 -63.518723 -12.634727 0.695914 -0.704306 -0.140080 255 0 0
-1.950359 -63.518723 -12.634727 -0.695914 -0.704306 -0.140080 255 0 0
1.950357 -59.833359 24.783731 0.695914 -0.663442 0.274789 255 0 0
-1.950360 -59.833359 24.783731 -0.695914 -0.663442 0.274789 255 0 0
1.890001 24.016794 -57.981659 0.999543 -0.014258 0.026676 255 0 0
1.950359 24.783779 -59.833321 0.999543 -0.014258 0.026676 255 0 0
1.950359 35.980473 -53.848572 0.999543 -0.014258 0.026676 255 0 0
-1.950359 -64.763138 -0.000062 -0.695914 -0.718101 0.000000 255 0 0
1.950359 64.763138 -0.000004 0.695914 0.718101 0.000000 255 0 0
-1.950358 64.763138 -0.000005 -0.695914 0.718101 0.000000 255 0 0
-1.890000 62.758904 -0.000005 -0.999542 -0.030102 0.002965 255 0 0
-1.950358 64.763138 -0.000005 -0.999542 -0.030102 0.002965 255 0 0
-1.950358 63.518723 -12.634663 -0.999542 -0.030102 0.002965 255 0 0
1.950356 -53.848602 35.980431 0.695914 -0.597064 0.398938 255 0 0
-1.950360 -53.848602 35.980431 -0.695914 -0.597064 0.398938 255 0 0
1.890000 -52.182072 -34.867043 0.999542 0.023381 0.019188 255 0 0
1.950358 -53.848534 -35.980534 0.999542 0.023381 0.019188 255 0 0
1.950358 -45.794395 -45.794510 0.999542 0.023381 0.019188 255 0 0
1.950359 63.518723 -12.634663 0.695914 0.704306 -0.140080 255 0 0
-1.950358 63.518723 -12.634663 -0.695914 0.704306 -0.140080 255 0 0
1.890001 0.000000 -62.758904 0.999542 -0.002965 0.030102 255 0 0
1.950359 -0.000000 -64.763138 0.999542 -0.002965 0.030102 255 0 0
1.950359 12.634661 -63.518723 0.999542 -0.002965 0.030102 255 0 0
1.950356 -45.794483 45.794430 0.695914 -0.507767 0.507767 255 0 0
-1.950360 -45.794483 45.794430 -0.695914 -0.507767 0.507767 255 0 0
-1.889999 57.981659 -24.016792 -0.999543 -0.026676 0.014258 255 0 0
-1.950358 59.833328 -24.783777 -0.999543 -0.026676 0.014258 255 0 0
-1.950357 53.848583 -35.980461 -0.999543 -0.026676 0.014258 255 0 0
1.950359 59.833328 -24.783777 0.695914 0.663442 -0.274789 255 0 0
-1.950358 59.833328 -24.783777 -0.695914 0.663442 -0.274789 255 0 0
1.889999 -61.552998 -12.243717 0.999542 0.028944 0.008780 255 0 0
1.950357 -63.518723 -12.634727 0.999542 0.028944 0.008780 255 0 0
1.950358 -59.833298 -24.783846 0.999542 0.028944 0.008780 255 0 0
-1.950360 -35.980503 53.848557 -0.695914 -0.398938 0.597064 255 0 0
-1.889999 -24.016705 -57.981697 -0.999542 0.008780 0.028945 255 0 0
-1.889999 -12.243561 -61.553020 -0.999542 0.008780 0.028945 255 0 0
-1.950358 -12.634565 -63.518749 -0.999542 0.008780 0.028945 255 0 0
-1.889999 44.377243 -44.377243 -0.999542 -0.019188 0.023381 255 0 0
-1.950357 45.794453 -45.794453 -0.999542 -0.019188 0.023381 255 0 0
-1.950357 35.980473 -53.848572 -0.999542 -0.019188 0.023381 255 0 0
1.889998 -24.016817 57.981644 0.999542 0.008780 -0.028945 255 0 0
1.889999 -12.243677 61.553001 0.999542 0.008780 -0.028945 255 0 0
1.950356 -24.783806 59.833317 0.999542 0.008780 -0.028945 255 0 0
-1.889999 57.981659 -24.016792 -0.999542 -0.028945 0.008780 255 0 0
1.889999 -12.243677 61.553001 0.999542 0.002965 -0.030101 255 0 0
1.950358 -53.848534 -35.980534 0.999542 0.026675 0.014258 255 0 0
1.890000 -52.182072 -34.867043 0.999542 0.026675 0.014258 255 0 0
1.950358 -59.833298 -24.783846 0.999542 0.026675 0.014258 255 0 0
1.889999 44.377243 44.377243 0.999542 -0.023381 -0.019188 255 0 0
1.950356 -0.000021 64.763138 0.999542 -0.002965 -0.030101 255 0 0
-1.889999 -12.243561 -61.553020 -0.999542 0.002965 0.030102 255 0 0
-1.889999 -0.000000 -62.758904 -0.999542 0.002965 0.030102 255 0 0
-1.950358 -12.634565 -63.518749 -0.999542 0.002965 0.030102 255 0 0
1.890000 57.981663 24.016781 0.999543 -0.028945 -0.008780 255 0 0
1.890000 61.553009 12.243648 0.999543 -0.028945 -0.008780 255 0 0
1.950358 59.833336 24.783768 0.999543 -0.028945 -0.008780 255 0 0
1.889999 12.243641 61.553009 0.999543 -0.008780 -0.028945 255 0 0
1.889999 24.016781 57.981667 0.999543 -0.008780 -0.028945 255 0 0
1.950357 12.634645 63.518730 0.999543 -0.008780 -0.028945 255 0 0
-1.889999 44.377243 -44.377243 -0.999542 -0.023381 0.019188 255 0 0
1.890000 61.553009 12.243648 0.999542 -0.030102 -0.002965 255 0 0
1.889999 24.016781 57.981667 0.999542 -0.014258 -0.026676 255 0 0
1.889999 34.866974 52.182117 0.999542 -0.014258 -0.026676 255 0 0
1.950357 24.783768 59.833344 0.999542 -0.014258 -0.026676 255 0 0
1.889999 -61.552998 -12.243717 0.999542 0.030101 0.002965 255 0 0
1.950359 64.763138 -0.000004 0.999542 -0.030102 0.002965 255 0 0
1.890000 62.758904 -0.000004 0.999542 -0.030102 0.002965 255 0 0
1.950359 63.518723 -12.634663 0.999542 -0.030102 0.002965 255 0 0
1.889999 34.866974 52.182117 0.999542 -0.019188 -0.023381 255 0 0
-1.890000 -34.866905 -52.182163 -0.999542 0.014258 0.026676 255 0 0
1.890001 61.553001 -12.243654 0.999543 -0.028945 0.008780 255 0 0
1.890001 57.981659 -24.016792 0.999543 -0.028945 0.008780 255 0 0
1.950359 63.518723 -12.634663 0.999543 -0.028945 0.008780 255 0 0
1.890000 52.182117 34.866974 0.999542 -0.026676 -0.014258 255 0 0
-1.889999 24.016794 -57.981659 -0.999542 -0.014259 0.026676 255 0 0
-1.889999 34.866982 -52.182114 -0.999542 -0.014259 0.026676 255 0 0
-1.950357 24.783779 -59.833321 -0.999542 -0.014259 0.026676 255 0 0
1.950359 59.833328 -24.783777 0.999543 -0.026676 0.014258 255 0 0
1.890001 57.981659 -24.016792 0.999543 -0.026676 0.014258 255 0 0
1.950359 53.848583 -35.980461 0.999543 -0.026676 0.014258 255 0 0
1.889999 -61.553017 12.243601 0.999542 0.028945 -0.008780 255 0 0
-1.950358 59.833336 24.783768 -0.999542 -0.026676 -0.014258 255 0 0
-1.890000 57.981663 24.016781 -0.999542 -0.026676 -0.014258 255 0 0
-1.950358 53.848583 35.980461 -0.999542 -0.026676 -0.014258 255 0 0
-1.890000 -52.182072 -34.867043 -0.999542 0.023381 0.019189 255 0 0
1.890001 -12.243559 -61.553020 0.999542 0.008780 0.028945 255 0 0
-1.950357 -0.000001 -64.763138 -0.999542 -0.002965 0.030101 255 0 0
-1.889999 -0.000000 -62.758904 -0.999542 -0.002965 0.030101 255 0 0
-1.950357 12.634661 -63.518723 -0.999542 -0.002965 0.030101 255 0 0
1.950359 45.794453 -45.794453 0.999542 -0.019189 0.023381 255 0 0
1.890001 44.377243 -44.377243 0.999542 -0.019189 0.023381 255 0 0
1.950359 35.980473 -53.848572 0.999542 -0.019189 0.023381 255 0 0
1.889999 -52.182144 34.866936 0.999543 0.023381 -0.019188 255 0 0
1.889998 -44.377270 44.377213 0.999543 0.023381 -0.019188 255 0 0
1.950356 -53.848602 35.980431 0.999543 0.023381 -0.019188 255 0 0
-1.890000 62.758904 -0.000005 -0.999542 -0.030102 -0.002965 255 0 0
1.889998 -44.377270 44.377213 0.999542 0.019188 -0.023381 255 0 0
1.889998 -34.867004 52.182095 0.999542 0.019188 -0.023381 255 0 0
1.950356 -45.794483 45.794430 0.999542 0.019188 -0.023381 255 0 0
1.890000 -34.866905 -52.182163 0.999542 0.019189 0.023381 255 0 0
1.889998 -34.867004 52.182095 0.999542 0.014258 -0.026676 255 0 0
1.889998 -24.016817 57.981644 0.999542 0.014258 -0.026676 255 0 0
1.950356 -35.980503 53.848557 0.999542 0.014258 -0.026676 255 0 0
1.890001 24.016794 -57.981659 0.999542 -0.008780 0.028945 255 0 0
1.889999 -62.758904 -0.000060 0.999542 0.030101 -0.002965 255 0 0
1.889999 -61.553017 12.243601 0.999542 0.030101 -0.002965 255 0 0
1.950357 -64.763138 -0.000061 0.999542 0.030101 -0.002965 255 0 0
-1.890000 -44.377186 -44.377300 -0.999542 0.019189 0.023381 255 0 0
-1.950357 53.848583 -35.980461 -0.695914 0.597064 -0.398938 255 0 0
-1.889999 12.243653 -61.553001 -0.999543 -0.008780 0.028945 255 0 0
-1.889999 24.016794 -57.981659 -0.999543 -0.008780 0.028945 255 0 0
-1.950357 12.634661 -63.518723 -0.999543 -0.008780 0.028945 255 0 0
1.889998 -57.981682 24.016743 0.999542 0.026676 -0.014258 255 0 0
1.889999 -52.182144 34.866936 0.999542 0.026676 -0.014258 255 0 0
1.950357 -59.833359 24.783731 0.999542 0.026676 -0.014258 255 0 0
-1.890000 -57.981636 -24.016857 -0.999542 0.026676 0.014259 255 0 0
-1.890000 -52.182072 -34.867043 -0.999542 0.026676 0.014259 255 0 0
-1.950359 -59.833298 -24.783846 -0.999542 0.026676 0.014259 255 0 0
-1.950357 35.980473 -53.848572 -0.695914 0.398938 -0.597064 255 0 0
-1.950359 -63.518723 -12.634727 -0.999542 0.028945 0.008780 255 0 0
-1.890001 -62.758904 -0.000061 -0.999542 0.030102 0.002965 255 0 0
-1.890001 -61.553017 12.243599 -0.999542 0.030102 -0.002965 255 0 0
-1.890001 -62.758904 -0.000061 -0.999542 0.030102 -0.002965 255 0 0
-1.950360 -63.518738 12.634605 -0.999542 0.030102 -0.002965 255 0 0
-1.890001 -57.981682 24.016743 -0.999543 0.028945 -0.008780 255 0 0
-1.890001 -61.553017 12.243599 -0.999543 0.028945 -0.008780 255 0 0
-1.950360 -59.833359 24.783731 -0.999543 0.028945 -0.008780 255 0 0
-1.950360 -12.634687 63.518726 -0.999543 0.008780 -0.028945 255 0 0
-1.890002 -52.182144 34.866936 -0.999542 0.026676 -0.014258 255 0 0
-1.890001 -57.981682 24.016743 -0.999542 0.026676 -0.014258 255 0 0
-1.950360 -53.848602 35.980431 -0.999542 0.026676 -0.014258 255 0 0
-1.890002 12.243639 61.553009 -0.999542 -0.002965 -0.030101 255 0 0
-1.890002 -0.000021 62.758904 -0.999542 -0.002965 -0.030101 255 0 0
-1.950360 12.634645 63.518730 -0.999542 -0.002965 -0.030101 255 0 0
-1.950358 -45.794395 -45.794510 -0.695914 -0.507767 -0.507767 255 0 0
-1.950360 -45.794483 45.794430 -0.999542 0.023381 -0.019188 255 0 0
-1.890002 -44.377270 44.377213 -0.999542 0.023381 -0.019188 255 0 0
-1.950360 -53.848602 35.980431 -0.999542 0.023381 -0.019188 255 0 0
-1.890001 24.016781 57.981667 -0.999542 -0.008780 -0.028945 255 0 0
-1.950360 -35.980503 53.848557 -0.999542 0.019189 -0.023381 255 0 0
-1.890002 -34.867004 52.182095 -0.999542 0.019189 -0.023381 255 0 0
-1.950360 -45.794483 45.794430 -0.999542 0.019189 -0.023381 255 0 0
-1.890001 34.866974 52.182117 -0.999542 -0.014258 -0.026676 255 0 0
-1.950360 -24.783806 59.833317 -0.999542 0.014258 -0.026676 255 0 0
-1.950359 45.794453 45.794453 -0.999542 -0.019189 -0.023381 255 0 0
-1.890001 44.377243 44.377243 -0.999542 -0.019189 -0.023381 255 0 0
-1.950359 35.980469 53.848579 -0.999542 -0.019189 -0.023381 255 0 0
-1.890002 -0.000021 62.758904 -0.999542 0.002965 -0.030101 255 0 0
-1.950358 53.848583 35.980461 -0.999542 -0.023381 -0.019189 255 0 0
1.890001 0.000000 -62.758904 0.999542 0.002965 0.030102 255 0 0
1.890001 -12.243559 -61.553020 0.999542 0.002965 0.030102 255 0 0
1.950359 -0.000000 -64.763138 0.999542 0.002965 0.030102 255 0 0
1.950359 53.848583 -35.980461 0.999542 -0.023381 0.019189 255 0 0
-1.890000 61.553009 12.243647 -0.999542 -0.028945 -0.008780 255 0 0
1.890000 -24.016705 -57.981697 0.999542 0.014258 0.026676 255 0 0
1.890001 34.866982 -52.182114 0.999542 -0.014258 0.026676 255 0 0
1.890001 24.016794 -57.981659 0.999542 -0.014258 0.026676 255 0 0
1.950359 35.980473 -53.848572 0.999542 -0.014258 0.026676 255 0 0
-1.889999 61.553001 -12.243656 -0.999542 -0.030102 0.002965 255 0 0
1.890000 -44.377186 -44.377300 0.999542 0.023381 0.019189 255 0 0
1.890000 -52.182072 -34.867043 0.999542 0.023381 0.019189 255 0 0
1.950358 -45.794395 -45.794510 0.999542 0.023381 0.019189 255 0 0
1.890001 12.243654 -61.553001 0.999542 -0.002965 0.030101 255 0 0
1.890001 0.000000 -62.758904 0.999542 -0.002965 0.030101 255 0 0
1.950359 12.634661 -63.518723 0.999542 -0.002965 0.030101 255 0 0
-1.889999 52.182117 -34.866974 -0.999542 -0.026675 0.014258 255 0 0
-1.889999 57.981659 -24.016792 -0.999542 -0.026675 0.014258 255 0 0
-1.950357 53.848583 -35.980461 -0.999542 -0.026675 0.014258 255 0 0
1.890000 -57.981636 -24.016857 0.999542 0.028945 0.008780 255 0 0
1.889999 -61.552998 -12.243717 0.999542 0.028945 0.008780 255 0 0
1.950358 -59.833298 -24.783846 0.999542 0.028945 0.008780 255 0 0
-1.950358 -24.783691 -59.833374 -0.999542 0.008780 0.028945 255 0 0
-1.889999 34.866982 -52.182114 -0.999542 -0.019189 0.023381 255 0 0
-1.889999 44.377243 -44.377243 -0.999542 -0.019189 0.023381 255 0 0
-1.950357 35.980473 -53.848572 -0.999542 -0.019189 0.023381 255 0 0
3 0 1 2
3 3 4 5
3 6 2 7
3 3 8 9
3 10 11 12
3 13 7 14
3 15 9 16
3 17 12 18
3 19 14 20
3 21 16 22
3 23 18 24
3 25 26 20
3 27 22 28
3 29 24 30
3 31 25 32
3 33 28 34
3 35 30 36
3 31 37 11
3 38 39 34
3 40 41 36
3 38 42 43
3 40 44 45
3 46 43 47
3 48 45 49
3 50 47 51
3 52 49 53
3 54 51 55
3 56 53 57
3 58 55 59
3 60 57 61
3 62 59 1
3 63 61 5
3 64 65 66
3 67 68 69
3 70 71 72
3 73 74 75
3 76 77 78
3 79 80 81
3 82 83 84
3 85 86 87
3 88 89 90
3 91 92 93
3 94 95 96
3 97 98 99
3 100 101 102
3 103 104 105
3 106 107 108
3 109 110 111
3 112 113 114
3 115 116 117
3 118 119 120
3 121 122 123
3 124 125 126
3 127 128 129
3 130 131 132
3 133 134 135
3 136 137 138
3 139 140 141
3 142 143 144
3 145 146 147
3 148 149 150
3 151 152 153
3 154 155 156
3 157 158 159
3 160 161 162
3 163 164 165
3 166 167 168
3 169 170 171
3 172 173 174
3 175 176 177
3 161 178 179
3 180 181 182
3 167 183 184
3 185 186 187
3 174 173 188
3 189 190 191
3 178 192 193
3 194 195 196
3 183 197 198
3 199 200 201
3 188 202 203
3 204 205 206
3 207 208 209
3 210 211 212
3 213 214 215
3 216 217 218
3 198 197 219
3 220 221 222
3 223 224 225
3 202 226 227
3 228 229 230
3 231 232 233
3 211 234 235
3 236 237 238
3 239 240 241
3 219 242 243
3 244 245 246
3 247 248 249
3 226 166 250
3 251 252 253
3 254 255 256
3 234 257 258
3 252 259 260
3 261 262 263
3 264 265 266
3 267 268 269
3 270 271 272
3 257 251 273
3 259 274 275
3 276 277 278
3 265 279 280
3 268 281 282
3 283 284 285
3 279 267 286
3 274 287 288
3 289 290 291
3 281 292 293
3 294 295 296
3 287 297 298
3 299 300 301
3 292 302 303
3 304 305 306
3 297 307 308
3 309 310 311
3 302 160 312
3 313 314 315
3 308 307 172
3 316 317 318
3 6 0 2
3 8 3 5
3 13 6 7
3 15 3 9
3 17 10 12
3 19 13 14
3 21 15 16
3 23 17 18
3 26 19 20
3 27 21 22
3 29 23 24
3 32 25 20
3 33 27 28
3 35 29 30
3 37 31 32
3 39 33 34
3 41 35 36
3 10 31 11
3 42 38 34
3 44 40 36
3 46 38 43
3 48 40 45
3 50 46 47
3 52 48 49
3 54 50 51
3 56 52 53
3 58 54 55
3 60 56 57
3 62 58 59
3 63 60 61
3 0 62 1
3 4 63 5
3 319 320 321
3 322 67 69
3 323 70 72
3 324 325 326
3 327 76 78
3 328 79 81
3 329 330 331
3 332 333 334
3 335 336 337
3 338 91 93
3 339 94 96
3 340 341 342
3 343 100 102
3 344 345 346
3 347 106 108
3 348 109 111
3 349 350 351
3 352 115 117
3 353 354 355
3 356 357 358
3 359 124 126
3 360 361 362
3 363 130 132
3 364 133 135
3 365 366 367
3 368 369 370
3 371 372 373
3 374 145 147
3 375 376 377
3 378 151 153
3 379 380 381
3 382 157 159
3 312 160 162
3 383 384 385
3 250 166 168
3 386 169 171
3 387 172 174
3 388 389 390
3 162 161 179
3 391 392 393
3 168 167 184
3 394 395 396
3 397 174 188
3 398 189 191
3 179 178 193
3 399 194 196
3 184 183 198
3 400 401 402
3 397 188 203
3 403 404 405
3 406 207 209
3 193 210 212
3 407 408 409
3 410 411 412
3 413 198 219
3 414 415 416
3 417 223 225
3 203 202 227
3 418 419 420
3 421 231 233
3 212 211 235
3 422 236 238
3 423 424 425
3 413 219 243
3 426 244 246
3 427 247 249
3 227 226 250
3 273 251 253
3 428 429 430
3 235 234 258
3 253 252 260
3 431 261 263
3 243 264 266
3 286 267 269
3 432 270 272
3 258 257 273
3 260 259 275
3 433 276 278
3 266 265 280
3 269 268 282
3 434 435 436
3 280 279 286
3 275 274 288
3 437 289 291
3 282 281 293
3 438 439 440
3 288 287 298
3 441 442 443
3 293 292 303
3 444 445 446
3 298 297 308
3 447 448 449
3 303 302 312
3 450 313 315
3 387 308 172
3 451 452 453
