ply
format ascii 1.0
comment Created by Blender 2.76 (sub 0) - www.blender.org, source file: 'gizmoPosZ.blend'
element vertex 45
property float x
property float y
property float z
property float nx
property float ny
property float nz
property uchar red
property uchar green
property uchar blue
element face 32
property list uchar uint vertex_indices
end_header
-0.270831 0.270831 -1.000000 0.000000 0.000000 -1.000000 0 0 255
0.270831 0.270831 -1.000000 0.000000 0.000000 -1.000000 0 0 255
0.270831 -0.270830 -1.000000 0.000000 0.000000 -1.000000 0 0 255
-0.270827 0.270816 50.000000 0.000000 1.000000 0.000000 0 0 255
0.270835 0.270816 50.000000 0.000000 1.000000 0.000000 0 0 255
0.270831 0.270831 -1.000000 0.000000 1.000000 0.000000 0 0 255
-0.270831 -0.270830 -1.000000 -0.000000 -1.000000 -0.000000 0 0 255
0.270831 -0.270830 -1.000000 -0.000000 -1.000000 -0.000000 0 0 255
0.270835 -0.270846 50.000000 -0.000000 -1.000000 -0.000000 0 0 255
0.270831 0.270831 -1.000000 1.000000 0.000000 -0.000000 0 0 255
0.270835 0.270816 50.000000 1.000000 0.000000 -0.000000 0 0 255
0.270835 -0.270846 50.000000 1.000000 0.000000 -0.000000 0 0 255
-0.270827 0.270816 50.000000 -1.000000 -0.000000 0.000000 0 0 255
-0.270831 0.270831 -1.000000 -1.000000 -0.000000 0.000000 0 0 255
-0.270831 -0.270830 -1.000000 -1.000000 -0.000000 0.000000 0 0 255
-4.440739 2.563845 50.530624 -0.763756 0.440962 -0.471358 0 0 255
0.000004 -0.000016 60.786076 0.000000 0.000000 0.999969 0 0 255
-2.563863 4.440724 50.530624 -0.440962 0.763756 -0.471358 0 0 255
0.000003 5.127710 50.530624 0.000000 0.881924 -0.471358 0 0 255
2.563866 4.440726 50.530624 0.440962 0.763756 -0.471358 0 0 255
-5.127721 -0.000018 50.530624 -0.881924 0.000000 -0.471358 0 0 255
-4.440735 -2.563879 50.530624 -0.763756 -0.440962 -0.471358 0 0 255
-2.563857 -4.440756 50.530624 -0.440962 -0.763756 -0.471358 0 0 255
0.000005 -5.127740 50.530624 0.000000 -0.881924 -0.471358 0 0 255
2.563867 -4.440754 50.530624 0.440962 -0.763756 -0.471358 0 0 255
4.440744 -2.563877 50.530624 0.763756 -0.440962 -0.471358 0 0 255
5.127729 -0.000014 50.530624 0.881924 0.000000 -0.471358 0 0 255
4.440744 2.563849 50.530624 0.763756 0.440962 -0.471358 0 0 255
2.563867 -4.440754 50.530624 0.000000 0.000000 -1.000000 0 0 255
-2.563857 -4.440756 50.530624 0.000000 0.000000 -1.000000 0 0 255
-2.563863 4.440724 50.530624 0.000000 0.000000 -1.000000 0 0 255
-0.270831 -0.270830 -1.000000 0.000000 0.000000 -1.000000 0 0 255
-0.270831 0.270831 -1.000000 0.000000 1.000000 0.000000 0 0 255
-0.270827 -0.270846 50.000000 0.000000 -1.000000 -0.000000 0 0 255
0.270831 -0.270830 -1.000000 1.000000 0.000000 -0.000000 0 0 255
-0.270827 -0.270846 50.000000 -1.000000 0.000000 0.000000 0 0 255
0.000003 5.127710 50.530624 -0.000000 0.000000 -1.000000 0 0 255
2.563866 4.440726 50.530624 -0.000000 0.000000 -1.000000 0 0 255
4.440744 2.563849 50.530624 0.000000 0.000000 -1.000000 0 0 255
5.127729 -0.000014 50.530624 0.000000 0.000000 -1.000000 0 0 255
4.440744 -2.563877 50.530624 0.000000 0.000000 -1.000000 0 0 255
0.000005 -5.127740 50.530624 0.000000 0.000000 -1.000000 0 0 255
-4.440735 -2.563879 50.530624 0.000000 0.000000 -1.000000 0 0 255
-5.127721 -0.000018 50.530624 0.000000 0.000000 -1.000000 0 0 255
-4.440739 2.563845 50.530624 0.000000 0.000000 -1.000000 0 0 255
3 0 1 2
3 3 4 5
3 6 7 8
3 9 10 11
3 12 13 14
3 15 16 17
3 18 16 19
3 20 16 15
3 21 16 20
3 22 16 21
3 23 16 22
3 24 16 23
3 25 16 24
3 26 16 25
3 27 16 26
3 17 16 18
3 19 16 27
3 28 29 30
3 31 0 2
3 32 3 5
3 33 6 8
3 34 9 11
3 35 12 14
3 30 36 37
3 37 38 39
3 39 40 37
3 28 41 29
3 29 42 43
3 43 44 30
3 30 37 40
3 40 28 30
3 29 43 30
