ply
format ascii 1.0
comment Created by Blender 2.76 (sub 0) - www.blender.org, source file: 'gizmoRotY.blend'
element vertex 438
property float x
property float y
property float z
property float nx
property float ny
property float nz
property uchar red
property uchar green
property uchar blue
element face 256
property list uchar uint vertex_indices
end_header
58.621902 -1.800003 -11.660686 -0.681845 -0.718772 0.135624 0 255 0
58.621902 1.799998 -11.660685 -0.681845 0.718772 0.135624 0 255 0
55.220604 1.799998 -22.873198 -0.642293 0.718772 0.266030 0 255 0
-33.206642 -1.800000 49.697258 0.386242 -0.718772 -0.578051 0 255 0
-42.264042 -1.800000 42.264042 0.491592 -0.718772 -0.491592 0 255 0
-42.264042 1.800000 42.264042 0.491592 0.718772 -0.491592 0 255 0
55.220604 -1.800002 -22.873198 -0.642293 -0.718772 0.266030 0 255 0
49.697216 1.799999 -33.206707 -0.578051 0.718772 0.386242 0 255 0
-33.206642 1.800000 49.697258 0.386242 0.718772 -0.578051 0 255 0
-22.873127 1.799999 55.220638 0.266030 0.718772 -0.642293 0 255 0
-0.000000 -1.799999 -59.770386 0.000000 -0.718772 0.695212 0 255 0
0.000000 1.800001 -59.770386 0.000000 0.718772 0.695212 0 255 0
-11.660624 1.800002 -58.621910 0.135624 0.718772 0.681845 0 255 0
49.697216 -1.800001 -33.206707 -0.578051 -0.718772 0.386242 0 255 0
42.263988 1.799999 -42.264099 -0.491592 0.718772 0.491592 0 255 0
-22.873127 -1.800001 55.220638 0.266030 -0.718772 -0.642293 0 255 0
-11.660610 1.799999 58.621914 0.135624 0.718772 -0.681845 0 255 0
-11.660624 -1.799999 -58.621910 0.135624 -0.718772 0.681845 0 255 0
-22.873138 1.800002 -55.220627 0.266030 0.718772 0.642293 0 255 0
42.263988 -1.800001 -42.264099 -0.491592 -0.718772 0.491592 0 255 0
33.206581 1.800000 -49.697304 -0.386242 0.718772 0.578051 0 255 0
-11.660610 -1.800002 58.621914 0.135624 -0.718772 -0.681845 0 255 0
0.000020 1.799999 59.770386 0.000000 0.718772 -0.695212 0 255 0
-22.873138 -1.799998 -55.220627 0.266030 -0.718772 0.642293 0 255 0
-33.206650 1.800002 -49.697250 0.386242 0.718772 0.578051 0 255 0
22.873053 -1.800000 -55.220665 -0.266030 -0.718772 0.642293 0 255 0
33.206581 -1.800000 -49.697304 -0.386242 -0.718772 0.578051 0 255 0
0.000019 -1.800002 59.770386 0.000000 -0.718772 -0.695212 0 255 0
11.660646 1.799998 58.621910 -0.135624 0.718772 -0.681845 0 255 0
-33.206650 -1.799998 -49.697250 0.386242 -0.718772 0.578051 0 255 0
-42.264042 1.800002 -42.264042 0.491592 0.718772 0.491592 0 255 0
11.660533 -1.800000 -58.621925 -0.135624 -0.718772 0.681845 0 255 0
22.873053 1.800000 -55.220665 -0.266030 0.718772 0.642293 0 255 0
11.660646 -1.800002 58.621910 -0.135624 -0.718772 -0.681845 0 255 0
22.873161 1.799998 55.220615 -0.266030 0.718772 -0.642293 0 255 0
-42.264042 -1.799998 -42.264042 0.491592 -0.718772 0.491592 0 255 0
-49.697258 1.800002 -33.206642 0.578051 0.718772 0.386242 0 255 0
11.660533 1.800001 -58.621925 -0.135624 0.718772 0.681845 0 255 0
33.206673 -1.800003 49.697235 -0.386242 -0.718772 -0.578051 0 255 0
22.873161 -1.800003 55.220615 -0.266030 -0.718772 -0.642293 0 255 0
-55.220627 -1.799998 -22.873135 0.642293 -0.718772 0.266030 0 255 0
-49.697258 -1.799998 -33.206642 0.578051 -0.718772 0.386242 0 255 0
33.206673 1.799998 49.697235 -0.386242 0.718772 -0.578051 0 255 0
42.264069 1.799997 42.264015 -0.491592 0.718772 -0.491592 0 255 0
-55.220627 1.800002 -22.873135 0.642293 0.718772 0.266030 0 255 0
-58.621910 1.800002 -11.660624 0.681845 0.718772 0.135624 0 255 0
42.264069 -1.800003 42.264015 -0.491592 -0.718772 -0.491592 0 255 0
49.697285 1.799997 33.206608 -0.578051 0.718772 -0.386242 0 255 0
-58.621910 -1.799998 -11.660625 0.681845 -0.718772 0.135624 0 255 0
-59.770386 1.800002 -0.000004 0.695212 0.718772 0.000000 0 255 0
49.697285 -1.800003 33.206608 -0.578051 -0.718772 -0.386242 0 255 0
55.220650 1.799997 22.873091 -0.642293 0.718772 -0.266030 0 255 0
-59.770386 -1.799998 -0.000005 0.695212 -0.718772 0.000000 0 255 0
-58.621914 1.800002 11.660617 0.681845 0.718772 -0.135624 0 255 0
55.220650 -1.800003 22.873091 -0.642293 -0.718772 -0.266030 0 255 0
58.621918 1.799998 11.660572 -0.681845 0.718772 -0.135624 0 255 0
-58.621914 -1.799999 11.660616 0.681845 -0.718772 -0.135624 0 255 0
-55.220634 1.800001 22.873127 0.642293 0.718772 -0.266030 0 255 0
58.621918 -1.800003 11.660570 -0.681845 -0.718772 -0.135624 0 255 0
59.770386 1.799998 -0.000057 -0.695212 0.718772 0.000000 0 255 0
-55.220634 -1.799999 22.873127 0.642293 -0.718772 -0.266030 0 255 0
-49.697258 1.800000 33.206642 0.578051 0.718772 -0.386242 0 255 0
59.770386 -1.800003 -0.000058 -0.695212 -0.718772 0.000000 0 255 0
-49.697258 -1.799999 33.206642 0.578051 -0.718772 -0.386242 0 255 0
11.660646 1.799998 58.621910 -0.008780 0.999542 -0.028945 0 255 0
12.033036 1.857482 60.494030 -0.008780 0.999542 -0.028945 0 255 0
23.603626 1.857481 56.984116 -0.008780 0.999542 -0.028945 0 255 0
-58.621910 -1.799998 -11.660625 0.028945 -0.999542 0.008780 0 255 0
-60.494026 -1.857482 -12.033012 0.028945 -0.999542 0.008780 0 255 0
-56.984127 -1.857482 -23.603600 0.028945 -0.999542 0.008780 0 255 0
0.000020 1.799999 59.770386 -0.002965 0.999542 -0.030101 0 255 0
0.000021 1.857482 61.679184 -0.002965 0.999542 -0.030101 0 255 0
12.033036 1.857482 60.494030 -0.002965 0.999542 -0.030101 0 255 0
49.697216 1.799999 -33.206707 -0.026675 0.999542 0.014258 0 255 0
55.220604 1.799998 -22.873198 -0.026675 0.999542 0.014258 0 255 0
56.984100 1.857482 -23.603664 -0.026675 0.999542 0.014258 0 255 0
-49.697258 1.800000 33.206642 0.023381 0.999542 -0.019189 0 255 0
-51.284370 1.857484 34.267105 0.023381 0.999542 -0.019189 0 255 0
-43.613766 1.857484 43.613766 0.023381 0.999542 -0.019189 0 255 0
0.000020 1.799999 59.770386 0.002965 0.999542 -0.030101 0 255 0
-11.660610 1.799999 58.621914 0.002965 0.999542 -0.030101 0 255 0
-12.032996 1.857483 60.494034 0.002965 0.999542 -0.030101 0 255 0
-0.000000 -1.799999 -59.770386 -0.002965 -0.999543 0.030102 0 255 0
0.000000 -1.857483 -61.679184 -0.002965 -0.999543 0.030102 0 255 0
12.032919 -1.857483 -60.494049 -0.002965 -0.999543 0.030102 0 255 0
-58.621914 1.800002 11.660617 0.028945 0.999542 -0.008780 0 255 0
-60.494034 1.857486 12.033005 0.028945 0.999542 -0.008780 0 255 0
-56.984131 1.857485 23.603592 0.028945 0.999542 -0.008780 0 255 0
-22.873127 1.799999 55.220638 0.008780 0.999543 -0.028945 0 255 0
-23.603592 1.857483 56.984138 0.008780 0.999543 -0.028945 0 255 0
-12.032996 1.857483 60.494034 0.008780 0.999543 -0.028945 0 255 0
-49.697258 -1.799998 -33.206642 0.023381 -0.999542 0.019188 0 255 0
-51.284370 -1.857482 -34.267105 0.023381 -0.999542 0.019188 0 255 0
-43.613766 -1.857482 -43.613766 0.023381 -0.999542 0.019188 0 255 0
-59.770386 1.800002 -0.000004 0.030101 0.999542 -0.002965 0 255 0
-61.679184 1.857486 -0.000004 0.030101 0.999542 -0.002965 0 255 0
-60.494034 1.857486 12.033005 0.030101 0.999542 -0.002965 0 255 0
-33.206642 1.800000 49.697258 0.014259 0.999542 -0.026676 0 255 0
-34.267113 1.857484 51.284363 0.014259 0.999542 -0.026676 0 255 0
-23.603592 1.857483 56.984138 0.014259 0.999542 -0.026676 0 255 0
59.770386 1.799998 -0.000057 -0.030101 0.999543 0.002965 0 255 0
61.679184 1.857481 -0.000059 -0.030101 0.999543 0.002965 0 255 0
60.494026 1.857482 -12.033075 -0.030101 0.999543 0.002965 0 255 0
-59.770386 1.800002 -0.000004 0.030102 0.999542 0.002965 0 255 0
-58.621910 1.800002 -11.660624 0.030102 0.999542 0.002965 0 255 0
-60.494026 1.857486 -12.033012 0.030102 0.999542 0.002965 0 255 0
-42.264042 1.800000 42.264042 0.019189 0.999542 -0.023381 0 255 0
-43.613766 1.857484 43.613766 0.019189 0.999542 -0.023381 0 255 0
-34.267113 1.857484 51.284363 0.019189 0.999542 -0.023381 0 255 0
22.873053 -1.800000 -55.220665 -0.014258 -0.999542 0.026676 0 255 0
23.603516 -1.857484 -56.984169 -0.014258 -0.999542 0.026676 0 255 0
34.267048 -1.857485 -51.284409 -0.014258 -0.999542 0.026676 0 255 0
-55.220627 1.800002 -22.873135 0.028945 0.999542 0.008780 0 255 0
-56.984127 1.857486 -23.603600 0.028945 0.999542 0.008780 0 255 0
-60.494026 1.857486 -12.033012 0.028945 0.999542 0.008780 0 255 0
-55.220634 1.800001 22.873127 0.026676 0.999542 -0.014258 0 255 0
-56.984131 1.857485 23.603592 0.026676 0.999542 -0.014258 0 255 0
-51.284370 1.857484 34.267105 0.026676 0.999542 -0.014258 0 255 0
-33.206650 -1.799998 -49.697250 0.014258 -0.999542 0.026676 0 255 0
-34.267120 -1.857482 -51.284355 0.014258 -0.999542 0.026676 0 255 0
-23.603603 -1.857482 -56.984123 0.014258 -0.999542 0.026676 0 255 0
-55.220627 1.800002 -22.873135 0.026676 0.999542 0.014258 0 255 0
-49.697258 1.800002 -33.206642 0.026676 0.999542 0.014258 0 255 0
-51.284370 1.857486 -34.267105 0.026676 0.999542 0.014258 0 255 0
55.220650 1.799997 22.873091 -0.028945 0.999542 -0.008780 0 255 0
56.984150 1.857481 23.603554 -0.028945 0.999542 -0.008780 0 255 0
60.494041 1.857481 12.032957 -0.028945 0.999542 -0.008780 0 255 0
-55.220634 -1.799999 22.873127 0.026676 -0.999542 -0.014258 0 255 0
-49.697258 -1.799999 33.206642 0.026676 -0.999542 -0.014258 0 255 0
-51.284370 -1.857483 34.267105 0.026676 -0.999542 -0.014258 0 255 0
42.263988 -1.800001 -42.264099 -0.023381 -0.999542 0.019188 0 255 0
43.613712 -1.857485 -43.613823 -0.023381 -0.999542 0.019188 0 255 0
51.284317 -1.857486 -34.267174 -0.023381 -0.999542 0.019188 0 255 0
22.873053 1.800000 -55.220665 -0.008780 0.999542 0.028945 0 255 0
23.603516 1.857484 -56.984169 -0.008780 0.999542 0.028945 0 255 0
12.032919 1.857484 -60.494049 -0.008780 0.999542 0.028945 0 255 0
-0.000000 -1.799999 -59.770386 0.002965 -0.999542 0.030102 0 255 0
-11.660624 -1.799999 -58.621910 0.002965 -0.999542 0.030102 0 255 0
-12.033010 -1.857483 -60.494026 0.002965 -0.999542 0.030102 0 255 0
-42.264042 1.800002 -42.264042 0.019189 0.999542 0.023381 0 255 0
-33.206650 1.800002 -49.697250 0.019189 0.999542 0.023381 0 255 0
-34.267120 1.857486 -51.284355 0.019189 0.999542 0.023381 0 255 0
42.264069 1.799997 42.264015 -0.023381 0.999542 -0.019188 0 255 0
43.613792 1.857481 43.613743 -0.023381 0.999542 -0.019188 0 255 0
51.284386 1.857481 34.267078 -0.023381 0.999542 -0.019188 0 255 0
-58.621914 -1.799999 11.660616 0.030102 -0.999542 -0.002965 0 255 0
-60.494034 -1.857483 12.033005 0.030102 -0.999542 -0.002965 0 255 0
-61.679184 -1.857482 -0.000005 0.030102 -0.999542 -0.002965 0 255 0
33.206673 1.799998 49.697235 -0.019188 0.999542 -0.023381 0 255 0
34.267147 1.857481 51.284340 -0.019188 0.999542 -0.023381 0 255 0
43.613792 1.857481 43.613743 -0.019188 0.999542 -0.023381 0 255 0
42.263988 1.799999 -42.264099 -0.019188 0.999542 0.023381 0 255 0
43.613712 1.857483 -43.613823 -0.019188 0.999542 0.023381 0 255 0
34.267048 1.857483 -51.284409 -0.019188 0.999542 0.023381 0 255 0
22.873161 1.799998 55.220615 -0.014258 0.999543 -0.026675 0 255 0
23.603626 1.857481 56.984116 -0.014258 0.999543 -0.026675 0 255 0
34.267147 1.857481 51.284340 -0.014258 0.999543 -0.026675 0 255 0
-11.660624 1.800002 -58.621910 0.008780 0.999542 0.028945 0 255 0
-12.033010 1.857485 -60.494026 0.008780 0.999542 0.028945 0 255 0
-23.603603 1.857486 -56.984123 0.008780 0.999542 0.028945 0 255 0
34.267147 1.857481 51.284340 0.398938 0.695914 0.597064 0 255 0
23.603626 1.857481 56.984116 0.274789 0.695914 0.663442 0 255 0
23.603626 -1.857486 56.984116 0.274789 -0.695914 0.663442 0 255 0
58.621918 1.799998 11.660572 -0.030101 0.999542 -0.002965 0 255 0
60.494041 1.857481 12.032957 -0.030101 0.999542 -0.002965 0 255 0
61.679184 1.857481 -0.000059 -0.030101 0.999542 -0.002965 0 255 0
0.000001 1.857485 -61.679184 0.000000 0.695914 -0.718101 0 255 0
12.032919 1.857484 -60.494049 0.140080 0.695914 -0.704306 0 255 0
12.032919 -1.857483 -60.494049 0.140080 -0.695914 -0.704306 0 255 0
33.206581 -1.800000 -49.697304 -0.019189 -0.999542 0.023382 0 255 0
34.267048 -1.857485 -51.284409 -0.019189 -0.999542 0.023382 0 255 0
43.613712 -1.857485 -43.613823 -0.019189 -0.999542 0.023382 0 255 0
-51.284370 1.857486 -34.267105 -0.597064 0.695914 -0.398938 0 255 0
-43.613766 1.857486 -43.613766 -0.507767 0.695914 -0.507767 0 255 0
-43.613766 -1.857482 -43.613766 -0.507767 -0.695914 -0.507767 0 255 0
-22.873138 -1.799998 -55.220627 0.008780 -0.999542 0.028945 0 255 0
-23.603603 -1.857482 -56.984123 0.008780 -0.999542 0.028945 0 255 0
-12.033010 -1.857483 -60.494026 0.008780 -0.999542 0.028945 0 255 0
12.033036 1.857482 60.494030 0.140080 0.695914 0.704306 0 255 0
12.033036 -1.857486 60.494030 0.140080 -0.695914 0.704306 0 255 0
49.697285 1.799997 33.206608 -0.026675 0.999542 -0.014258 0 255 0
51.284386 1.857481 34.267078 -0.026675 0.999542 -0.014258 0 255 0
56.984150 1.857481 23.603554 -0.026675 0.999542 -0.014258 0 255 0
23.603516 1.857484 -56.984169 0.274789 0.695914 -0.663442 0 255 0
23.603516 -1.857484 -56.984169 0.274789 -0.695914 -0.663442 0 255 0
49.697216 -1.800001 -33.206707 -0.026676 -0.999542 0.014259 0 255 0
51.284317 -1.857486 -34.267174 -0.026676 -0.999542 0.014259 0 255 0
56.984100 -1.857486 -23.603664 -0.026676 -0.999542 0.014259 0 255 0
-34.267120 1.857486 -51.284355 -0.398938 0.695914 -0.597064 0 255 0
58.621902 -1.800003 -11.660686 -0.028945 -0.999542 0.008780 0 255 0
55.220604 -1.800002 -22.873198 -0.028945 -0.999542 0.008780 0 255 0
56.984100 -1.857486 -23.603664 -0.028945 -0.999542 0.008780 0 255 0
0.000021 1.857482 61.679184 0.000000 0.695914 0.718101 0 255 0
0.000020 -1.857486 61.679184 0.000000 -0.695914 0.718101 0 255 0
58.621902 -1.800003 -11.660686 -0.030101 -0.999542 0.002965 0 255 0
60.494026 -1.857486 -12.033075 -0.030101 -0.999542 0.002965 0 255 0
61.679184 -1.857487 -0.000059 -0.030101 -0.999542 0.002965 0 255 0
34.267048 1.857483 -51.284409 0.398938 0.695914 -0.597064 0 255 0
34.267048 -1.857485 -51.284409 0.398938 -0.695914 -0.597064 0 255 0
59.770386 -1.800003 -0.000058 -0.030102 -0.999542 -0.002965 0 255 0
61.679184 -1.857487 -0.000059 -0.030102 -0.999542 -0.002965 0 255 0
60.494041 -1.857487 12.032957 -0.030102 -0.999542 -0.002965 0 255 0
-23.603603 1.857486 -56.984123 -0.274789 0.695914 -0.663442 0 255 0
-23.603603 -1.857482 -56.984123 -0.274789 -0.695914 -0.663442 0 255 0
58.621918 -1.800003 11.660570 -0.028945 -0.999542 -0.008780 0 255 0
60.494041 -1.857487 12.032957 -0.028945 -0.999542 -0.008780 0 255 0
56.984150 -1.857487 23.603554 -0.028945 -0.999542 -0.008780 0 255 0
11.660646 -1.800002 58.621910 -0.008780 -0.999542 -0.028945 0 255 0
22.873161 -1.800003 55.220615 -0.008780 -0.999542 -0.028945 0 255 0
23.603626 -1.857486 56.984116 -0.008780 -0.999542 -0.028945 0 255 0
-12.032996 1.857483 60.494034 -0.140080 0.695914 0.704306 0 255 0
-12.032996 -1.857486 60.494034 -0.140080 -0.695914 0.704306 0 255 0
55.220650 -1.800003 22.873091 -0.026676 -0.999542 -0.014258 0 255 0
56.984150 -1.857487 23.603554 -0.026676 -0.999542 -0.014258 0 255 0
51.284386 -1.857487 34.267078 -0.026676 -0.999542 -0.014258 0 255 0
0.000019 -1.800002 59.770386 0.002965 -0.999542 -0.030102 0 255 0
0.000020 -1.857486 61.679184 0.002965 -0.999542 -0.030102 0 255 0
-12.032996 -1.857486 60.494034 0.002965 -0.999542 -0.030102 0 255 0
43.613712 1.857483 -43.613823 0.507767 0.695914 -0.507767 0 255 0
42.264069 -1.800003 42.264015 -0.023381 -0.999542 -0.019189 0 255 0
49.697285 -1.800003 33.206608 -0.023381 -0.999542 -0.019189 0 255 0
51.284386 -1.857487 34.267078 -0.023381 -0.999542 -0.019189 0 255 0
-11.660610 -1.800002 58.621914 0.008780 -0.999542 -0.028945 0 255 0
-12.032996 -1.857486 60.494034 0.008780 -0.999542 -0.028945 0 255 0
-23.603592 -1.857485 56.984138 0.008780 -0.999542 -0.028945 0 255 0
-12.033010 1.857485 -60.494026 -0.140080 0.695914 -0.704306 0 255 0
-12.033010 -1.857483 -60.494026 -0.140080 -0.695914 -0.704306 0 255 0
33.206673 -1.800003 49.697235 -0.019189 -0.999542 -0.023381 0 255 0
42.264069 -1.800003 42.264015 -0.019189 -0.999542 -0.023381 0 255 0
43.613792 -1.857487 43.613743 -0.019189 -0.999542 -0.023381 0 255 0
-22.873127 -1.800001 55.220638 0.014258 -0.999543 -0.026676 0 255 0
-23.603592 -1.857485 56.984138 0.014258 -0.999543 -0.026676 0 255 0
-34.267113 -1.857484 51.284363 0.014258 -0.999543 -0.026676 0 255 0
-23.603592 1.857483 56.984138 -0.274789 0.695914 0.663442 0 255 0
-23.603592 -1.857485 56.984138 -0.274789 -0.695914 0.663442 0 255 0
22.873161 -1.800003 55.220615 -0.014259 -0.999542 -0.026676 0 255 0
33.206673 -1.800003 49.697235 -0.014259 -0.999542 -0.026676 0 255 0
34.267147 -1.857487 51.284340 -0.014259 -0.999542 -0.026676 0 255 0
-42.264042 -1.800000 42.264042 0.019189 -0.999542 -0.023381 0 255 0
-33.206642 -1.800000 49.697258 0.019189 -0.999542 -0.023381 0 255 0
-34.267113 -1.857484 51.284363 0.019189 -0.999542 -0.023381 0 255 0
51.284317 1.857483 -34.267174 0.597064 0.695914 -0.398938 0 255 0
51.284317 -1.857486 -34.267174 0.597064 -0.695914 -0.398938 0 255 0
11.660646 -1.800002 58.621910 -0.002965 -0.999542 -0.030102 0 255 0
12.033036 -1.857486 60.494030 -0.002965 -0.999542 -0.030102 0 255 0
0.000020 -1.857486 61.679184 -0.002965 -0.999542 -0.030102 0 255 0
-49.697258 -1.799999 33.206642 0.023381 -0.999542 -0.019189 0 255 0
-42.264042 -1.800000 42.264042 0.023381 -0.999542 -0.019189 0 255 0
-43.613766 -1.857484 43.613766 0.023381 -0.999542 -0.019189 0 255 0
0.000000 -1.857483 -61.679184 0.000000 -0.695914 -0.718101 0 255 0
-43.613766 1.857484 43.613766 -0.507767 0.695914 0.507767 0 255 0
-51.284370 1.857484 34.267105 -0.597064 0.695914 0.398938 0 255 0
-51.284370 -1.857483 34.267105 -0.597064 -0.695914 0.398938 0 255 0
11.660533 1.800001 -58.621925 -0.002965 0.999542 0.030101 0 255 0
12.032919 1.857484 -60.494049 -0.002965 0.999542 0.030101 0 255 0
0.000001 1.857485 -61.679184 -0.002965 0.999542 0.030101 0 255 0
-34.267113 1.857484 51.284363 -0.398938 0.695914 0.597064 0 255 0
-34.267113 -1.857484 51.284363 -0.398938 -0.695914 0.597064 0 255 0
-56.984131 1.857485 23.603592 -0.663442 0.695914 0.274789 0 255 0
-56.984131 -1.857483 23.603592 -0.663442 -0.695914 0.274789 0 255 0
-49.697258 1.800002 -33.206642 0.023382 0.999542 0.019189 0 255 0
-42.264042 1.800002 -42.264042 0.023382 0.999542 0.019189 0 255 0
-43.613766 1.857486 -43.613766 0.023382 0.999542 0.019189 0 255 0
56.984100 1.857482 -23.603664 0.663442 0.695914 -0.274789 0 255 0
56.984100 -1.857486 -23.603664 0.663442 -0.695914 -0.274789 0 255 0
61.679184 1.857481 -0.000059 0.718101 0.695914 0.000000 0 255 0
60.494041 1.857481 12.032957 0.704306 0.695914 0.140080 0 255 0
60.494041 -1.857487 12.032957 0.704306 -0.695914 0.140080 0 255 0
-55.220634 -1.799999 22.873127 0.028945 -0.999543 -0.008780 0 255 0
-56.984131 -1.857483 23.603592 0.028945 -0.999543 -0.008780 0 255 0
-60.494034 -1.857483 12.033005 0.028945 -0.999543 -0.008780 0 255 0
-43.613766 -1.857484 43.613766 -0.507767 -0.695914 0.507767 0 255 0
-60.494034 1.857486 12.033005 -0.704306 0.695914 0.140080 0 255 0
-60.494034 -1.857483 12.033005 -0.704306 -0.695914 0.140080 0 255 0
33.206581 1.800000 -49.697304 -0.014258 0.999543 0.026676 0 255 0
34.267048 1.857483 -51.284409 -0.014258 0.999543 0.026676 0 255 0
23.603516 1.857484 -56.984169 -0.014258 0.999543 0.026676 0 255 0
60.494026 1.857482 -12.033075 0.704306 0.695914 -0.140080 0 255 0
60.494026 -1.857486 -12.033075 0.704306 -0.695914 -0.140080 0 255 0
56.984150 1.857481 23.603554 0.663442 0.695914 0.274789 0 255 0
56.984150 -1.857487 23.603554 0.663442 -0.695914 0.274789 0 255 0
-22.873138 1.800002 -55.220627 0.014258 0.999542 0.026675 0 255 0
-23.603603 1.857486 -56.984123 0.014258 0.999542 0.026675 0 255 0
-34.267120 1.857486 -51.284355 0.014258 0.999542 0.026675 0 255 0
61.679184 -1.857487 -0.000059 0.718101 -0.695914 0.000000 0 255 0
-61.679184 1.857486 -0.000004 -0.718101 0.695914 0.000000 0 255 0
-61.679184 -1.857482 -0.000005 -0.718101 -0.695914 0.000000 0 255 0
-59.770386 -1.799998 -0.000005 0.030102 -0.999542 0.002965 0 255 0
-61.679184 -1.857482 -0.000005 0.030102 -0.999542 0.002965 0 255 0
-60.494026 -1.857482 -12.033012 0.030102 -0.999542 0.002965 0 255 0
51.284386 1.857481 34.267078 0.597064 0.695914 0.398938 0 255 0
51.284386 -1.857487 34.267078 0.597064 -0.695914 0.398938 0 255 0
49.697216 1.799999 -33.206707 -0.023381 0.999542 0.019189 0 255 0
51.284317 1.857483 -34.267174 -0.023381 0.999542 0.019189 0 255 0
43.613712 1.857483 -43.613823 -0.023381 0.999542 0.019189 0 255 0
-60.494026 1.857486 -12.033012 -0.704306 0.695914 -0.140080 0 255 0
-60.494026 -1.857482 -12.033012 -0.704306 -0.695914 -0.140080 0 255 0
0.000000 1.800001 -59.770386 0.002965 0.999542 0.030101 0 255 0
0.000001 1.857485 -61.679184 0.002965 0.999542 0.030101 0 255 0
-12.033010 1.857485 -60.494026 0.002965 0.999542 0.030101 0 255 0
43.613792 1.857481 43.613743 0.507767 0.695914 0.507767 0 255 0
43.613792 -1.857487 43.613743 0.507767 -0.695914 0.507767 0 255 0
-55.220627 -1.799998 -22.873135 0.026676 -0.999542 0.014258 0 255 0
-56.984127 -1.857482 -23.603600 0.026676 -0.999542 0.014258 0 255 0
-51.284370 -1.857482 -34.267105 0.026676 -0.999542 0.014258 0 255 0
-56.984127 1.857486 -23.603600 -0.663442 0.695914 -0.274789 0 255 0
-56.984127 -1.857482 -23.603600 -0.663442 -0.695914 -0.274789 0 255 0
58.621902 1.799998 -11.660685 -0.028944 0.999542 0.008780 0 255 0
60.494026 1.857482 -12.033075 -0.028944 0.999542 0.008780 0 255 0
56.984100 1.857482 -23.603664 -0.028944 0.999542 0.008780 0 255 0
34.267147 -1.857487 51.284340 0.398938 -0.695914 0.597064 0 255 0
22.873053 -1.800000 -55.220665 -0.008780 -0.999542 0.028945 0 255 0
11.660533 -1.800000 -58.621925 -0.008780 -0.999542 0.028945 0 255 0
12.032919 -1.857483 -60.494049 -0.008780 -0.999542 0.028945 0 255 0
-42.264042 -1.799998 -42.264042 0.019188 -0.999542 0.023381 0 255 0
-43.613766 -1.857482 -43.613766 0.019188 -0.999542 0.023381 0 255 0
-34.267120 -1.857482 -51.284355 0.019188 -0.999542 0.023381 0 255 0
22.873161 1.799998 55.220615 -0.008780 0.999542 -0.028945 0 255 0
-55.220627 -1.799998 -22.873135 0.028945 -0.999542 0.008780 0 255 0
11.660646 1.799998 58.621910 -0.002965 0.999542 -0.030101 0 255 0
51.284317 1.857483 -34.267174 -0.026676 0.999542 0.014259 0 255 0
49.697216 1.799999 -33.206707 -0.026676 0.999542 0.014259 0 255 0
56.984100 1.857482 -23.603664 -0.026676 0.999542 0.014259 0 255 0
-42.264042 1.800000 42.264042 0.023381 0.999542 -0.019188 0 255 0
-49.697258 1.800000 33.206642 0.023381 0.999542 -0.019188 0 255 0
-43.613766 1.857484 43.613766 0.023381 0.999542 -0.019188 0 255 0
0.000021 1.857482 61.679184 0.002965 0.999542 -0.030101 0 255 0
11.660533 -1.800000 -58.621925 -0.002965 -0.999542 0.030101 0 255 0
-0.000000 -1.799999 -59.770386 -0.002965 -0.999542 0.030101 0 255 0
12.032919 -1.857483 -60.494049 -0.002965 -0.999542 0.030101 0 255 0
-55.220634 1.800001 22.873127 0.028945 0.999542 -0.008780 0 255 0
-11.660610 1.799999 58.621914 0.008780 0.999542 -0.028945 0 255 0
-22.873127 1.799999 55.220638 0.008780 0.999542 -0.028945 0 255 0
-12.032996 1.857483 60.494034 0.008780 0.999542 -0.028945 0 255 0
-42.264042 -1.799998 -42.264042 0.023381 -0.999542 0.019188 0 255 0
-58.621914 1.800002 11.660617 0.030101 0.999542 -0.002965 0 255 0
-22.873127 1.799999 55.220638 0.014258 0.999542 -0.026675 0 255 0
-33.206642 1.800000 49.697258 0.014258 0.999542 -0.026675 0 255 0
-23.603592 1.857483 56.984138 0.014258 0.999542 -0.026675 0 255 0
58.621902 1.799998 -11.660685 -0.030101 0.999542 0.002965 0 255 0
59.770386 1.799998 -0.000057 -0.030101 0.999542 0.002965 0 255 0
60.494026 1.857482 -12.033075 -0.030101 0.999542 0.002965 0 255 0
-61.679184 1.857486 -0.000004 0.030101 0.999542 0.002965 0 255 0
-59.770386 1.800002 -0.000004 0.030101 0.999542 0.002965 0 255 0
-60.494026 1.857486 -12.033012 0.030101 0.999542 0.002965 0 255 0
-33.206642 1.800000 49.697258 0.019189 0.999542 -0.023381 0 255 0
33.206581 -1.800000 -49.697304 -0.014259 -0.999542 0.026676 0 255 0
22.873053 -1.800000 -55.220665 -0.014259 -0.999542 0.026676 0 255 0
34.267048 -1.857485 -51.284409 -0.014259 -0.999542 0.026676 0 255 0
-58.621910 1.800002 -11.660624 0.028945 0.999542 0.008780 0 255 0
-49.697258 1.800000 33.206642 0.026676 0.999542 -0.014258 0 255 0
-22.873138 -1.799998 -55.220627 0.014258 -0.999542 0.026676 0 255 0
-56.984127 1.857486 -23.603600 0.026676 0.999542 0.014258 0 255 0
58.621918 1.799998 11.660572 -0.028945 0.999542 -0.008780 0 255 0
-56.984131 -1.857483 23.603592 0.026676 -0.999542 -0.014258 0 255 0
49.697216 -1.800001 -33.206707 -0.023382 -0.999542 0.019189 0 255 0
42.263988 -1.800001 -42.264099 -0.023382 -0.999542 0.019189 0 255 0
51.284317 -1.857486 -34.267174 -0.023382 -0.999542 0.019189 0 255 0
11.660533 1.800001 -58.621925 -0.008780 0.999542 0.028945 0 255 0
0.000000 -1.857483 -61.679184 0.002965 -0.999542 0.030102 0 255 0
-43.613766 1.857486 -43.613766 0.019189 0.999542 0.023382 0 255 0
-42.264042 1.800002 -42.264042 0.019189 0.999542 0.023382 0 255 0
-34.267120 1.857486 -51.284355 0.019189 0.999542 0.023382 0 255 0
49.697285 1.799997 33.206608 -0.023381 0.999542 -0.019188 0 255 0
-59.770386 -1.799998 -0.000005 0.030102 -0.999542 -0.002965 0 255 0
42.264069 1.799997 42.264015 -0.019188 0.999542 -0.023381 0 255 0
33.206581 1.800000 -49.697304 -0.019188 0.999542 0.023381 0 255 0
33.206673 1.799998 49.697235 -0.014258 0.999542 -0.026675 0 255 0
22.873161 1.799998 55.220615 -0.014258 0.999542 -0.026675 0 255 0
34.267147 1.857481 51.284340 -0.014258 0.999542 -0.026675 0 255 0
-22.873138 1.800002 -55.220627 0.008780 0.999542 0.028945 0 255 0
59.770386 1.799998 -0.000057 -0.030101 0.999542 -0.002965 0 255 0
42.263988 -1.800001 -42.264099 -0.019189 -0.999542 0.023381 0 255 0
33.206581 -1.800000 -49.697304 -0.019189 -0.999542 0.023381 0 255 0
43.613712 -1.857485 -43.613823 -0.019189 -0.999542 0.023381 0 255 0
-51.284370 -1.857482 -34.267105 -0.597064 -0.695914 -0.398938 0 255 0
-11.660624 -1.799999 -58.621910 0.008780 -0.999542 0.028945 0 255 0
55.220650 1.799997 22.873091 -0.026676 0.999542 -0.014258 0 255 0
49.697285 1.799997 33.206608 -0.026676 0.999542 -0.014258 0 255 0
56.984150 1.857481 23.603554 -0.026676 0.999542 -0.014258 0 255 0
55.220604 -1.800002 -22.873198 -0.026676 -0.999542 0.014258 0 255 0
49.697216 -1.800001 -33.206707 -0.026676 -0.999542 0.014258 0 255 0
56.984100 -1.857486 -23.603664 -0.026676 -0.999542 0.014258 0 255 0
-34.267120 -1.857482 -51.284355 -0.398938 -0.695914 -0.597064 0 255 0
60.494026 -1.857486 -12.033075 -0.028945 -0.999542 0.008780 0 255 0
59.770386 -1.800003 -0.000058 -0.030102 -0.999542 0.002965 0 255 0
58.621902 -1.800003 -11.660686 -0.030102 -0.999542 0.002965 0 255 0
61.679184 -1.857487 -0.000059 -0.030102 -0.999542 0.002965 0 255 0
58.621918 -1.800003 11.660570 -0.030102 -0.999542 -0.002965 0 255 0
55.220650 -1.800003 22.873091 -0.028945 -0.999542 -0.008780 0 255 0
12.033036 -1.857486 60.494030 -0.008780 -0.999542 -0.028945 0 255 0
49.697285 -1.800003 33.206608 -0.026676 -0.999542 -0.014258 0 255 0
-11.660610 -1.800002 58.621914 0.002965 -0.999542 -0.030102 0 255 0
43.613712 -1.857485 -43.613823 0.507767 -0.695914 -0.507767 0 255 0
43.613792 -1.857487 43.613743 -0.023382 -0.999542 -0.019189 0 255 0
42.264069 -1.800003 42.264015 -0.023382 -0.999542 -0.019189 0 255 0
51.284386 -1.857487 34.267078 -0.023382 -0.999542 -0.019189 0 255 0
-22.873127 -1.800001 55.220638 0.008780 -0.999542 -0.028945 0 255 0
34.267147 -1.857487 51.284340 -0.019189 -0.999542 -0.023382 0 255 0
33.206673 -1.800003 49.697235 -0.019189 -0.999542 -0.023382 0 255 0
43.613792 -1.857487 43.613743 -0.019189 -0.999542 -0.023382 0 255 0
-33.206642 -1.800000 49.697258 0.014258 -0.999542 -0.026676 0 255 0
-22.873127 -1.800001 55.220638 0.014258 -0.999542 -0.026676 0 255 0
-34.267113 -1.857484 51.284363 0.014258 -0.999542 -0.026676 0 255 0
23.603626 -1.857486 56.984116 -0.014258 -0.999543 -0.026675 0 255 0
22.873161 -1.800003 55.220615 -0.014258 -0.999543 -0.026675 0 255 0
34.267147 -1.857487 51.284340 -0.014258 -0.999543 -0.026675 0 255 0
-43.613766 -1.857484 43.613766 0.019189 -0.999542 -0.023381 0 255 0
0.000019 -1.800002 59.770386 -0.002965 -0.999542 -0.030102 0 255 0
-51.284370 -1.857483 34.267105 0.023381 -0.999542 -0.019189 0 255 0
0.000000 1.800001 -59.770386 -0.002965 0.999542 0.030101 0 255 0
-51.284370 1.857486 -34.267105 0.023381 0.999542 0.019189 0 255 0
-49.697258 1.800002 -33.206642 0.023381 0.999542 0.019189 0 255 0
-43.613766 1.857486 -43.613766 0.023381 0.999542 0.019189 0 255 0
-58.621914 -1.799999 11.660616 0.028945 -0.999542 -0.008780 0 255 0
-55.220634 -1.799999 22.873127 0.028945 -0.999542 -0.008780 0 255 0
-60.494034 -1.857483 12.033005 0.028945 -0.999542 -0.008780 0 255 0
22.873053 1.800000 -55.220665 -0.014258 0.999542 0.026676 0 255 0
33.206581 1.800000 -49.697304 -0.014258 0.999542 0.026676 0 255 0
23.603516 1.857484 -56.984169 -0.014258 0.999542 0.026676 0 255 0
-33.206650 1.800002 -49.697250 0.014258 0.999542 0.026676 0 255 0
-22.873138 1.800002 -55.220627 0.014258 0.999542 0.026676 0 255 0
-34.267120 1.857486 -51.284355 0.014258 0.999542 0.026676 0 255 0
-58.621910 -1.799998 -11.660625 0.030102 -0.999542 0.002965 0 255 0
42.263988 1.799999 -42.264099 -0.023381 0.999542 0.019188 0 255 0
49.697216 1.799999 -33.206707 -0.023381 0.999542 0.019188 0 255 0
43.613712 1.857483 -43.613823 -0.023381 0.999542 0.019188 0 255 0
-11.660624 1.800002 -58.621910 0.002965 0.999542 0.030101 0 255 0
-49.697258 -1.799998 -33.206642 0.026675 -0.999542 0.014258 0 255 0
-55.220627 -1.799998 -22.873135 0.026675 -0.999542 0.014258 0 255 0
-51.284370 -1.857482 -34.267105 0.026675 -0.999542 0.014258 0 255 0
55.220604 1.799998 -22.873198 -0.028945 0.999542 0.008780 0 255 0
58.621902 1.799998 -11.660685 -0.028945 0.999542 0.008780 0 255 0
56.984100 1.857482 -23.603664 -0.028945 0.999542 0.008780 0 255 0
23.603516 -1.857484 -56.984169 -0.008780 -0.999542 0.028945 0 255 0
-33.206650 -1.799998 -49.697250 0.019189 -0.999542 0.023381 0 255 0
-42.264042 -1.799998 -42.264042 0.019189 -0.999542 0.023381 0 255 0
-34.267120 -1.857482 -51.284355 0.019189 -0.999542 0.023381 0 255 0
3 0 1 2
3 3 4 5
3 6 2 7
3 3 8 9
3 10 11 12
3 13 7 14
3 15 9 16
3 17 12 18
3 19 14 20
3 21 16 22
3 23 18 24
3 25 26 20
3 27 22 28
3 29 24 30
3 31 25 32
3 33 28 34
3 35 30 36
3 31 37 11
3 38 39 34
3 40 41 36
3 38 42 43
3 40 44 45
3 46 43 47
3 48 45 49
3 50 47 51
3 52 49 53
3 54 51 55
3 56 53 57
3 58 55 59
3 60 57 61
3 62 59 1
3 63 61 5
3 64 65 66
3 67 68 69
3 70 71 72
3 73 74 75
3 76 77 78
3 79 80 81
3 82 83 84
3 85 86 87
3 88 89 90
3 91 92 93
3 94 95 96
3 97 98 99
3 100 101 102
3 103 104 105
3 106 107 108
3 109 110 111
3 112 113 114
3 115 116 117
3 118 119 120
3 121 122 123
3 124 125 126
3 127 128 129
3 130 131 132
3 133 134 135
3 136 137 138
3 139 140 141
3 142 143 144
3 145 146 147
3 148 149 150
3 151 152 153
3 154 155 156
3 157 158 159
3 160 161 162
3 163 164 165
3 166 167 168
3 169 170 171
3 172 173 174
3 175 176 177
3 161 178 179
3 180 181 182
3 167 183 184
3 185 186 187
3 174 173 188
3 189 190 191
3 178 192 193
3 194 195 196
3 183 197 198
3 199 200 201
3 188 202 203
3 204 205 206
3 207 208 209
3 192 210 211
3 212 213 214
3 215 216 217
3 198 197 218
3 219 220 221
3 222 223 224
3 202 225 226
3 227 228 229
3 230 231 232
3 210 233 234
3 235 236 237
3 238 239 240
3 218 241 242
3 243 244 245
3 246 247 248
3 225 166 249
3 250 251 252
3 253 254 255
3 233 256 257
3 251 258 259
3 260 261 262
3 241 263 264
3 265 266 267
3 268 269 270
3 256 250 271
3 258 272 273
3 274 275 276
3 263 277 278
3 266 279 280
3 281 282 283
3 277 265 284
3 272 285 286
3 287 288 289
3 279 290 291
3 292 293 294
3 285 295 296
3 297 298 299
3 290 300 301
3 302 303 304
3 295 305 306
3 307 308 309
3 300 160 310
3 311 312 313
3 306 305 172
3 314 315 316
3 6 0 2
3 8 3 5
3 13 6 7
3 15 3 9
3 17 10 12
3 19 13 14
3 21 15 16
3 23 17 18
3 26 19 20
3 27 21 22
3 29 23 24
3 32 25 20
3 33 27 28
3 35 29 30
3 37 31 32
3 39 33 34
3 41 35 36
3 10 31 11
3 42 38 34
3 44 40 36
3 46 38 43
3 48 40 45
3 50 46 47
3 52 48 49
3 54 50 51
3 56 52 53
3 58 54 55
3 60 56 57
3 62 58 59
3 63 60 61
3 0 62 1
3 4 63 5
3 317 64 66
3 318 67 69
3 319 70 72
3 320 321 322
3 323 324 325
3 326 79 81
3 327 328 329
3 330 85 87
3 331 332 333
3 334 91 93
3 335 94 96
3 336 337 338
3 339 340 341
3 342 343 344
3 345 106 108
3 346 347 348
3 349 112 114
3 350 115 117
3 351 118 120
3 352 121 123
3 353 124 126
3 354 127 129
3 355 356 357
3 358 133 135
3 359 136 138
3 360 361 362
3 363 142 144
3 364 145 147
3 365 148 150
3 366 151 153
3 367 368 369
3 370 157 159
3 310 160 162
3 371 163 165
3 249 166 168
3 372 373 374
3 375 172 174
3 376 175 177
3 162 161 179
3 377 378 379
3 168 167 184
3 380 381 382
3 383 174 188
3 384 189 191
3 179 178 193
3 385 386 387
3 184 183 198
3 388 199 201
3 383 188 203
3 389 204 206
3 390 207 209
3 193 192 211
3 391 212 214
3 392 215 217
3 393 198 218
3 394 395 396
3 397 222 224
3 203 202 226
3 398 399 400
3 401 402 403
3 211 210 234
3 404 405 406
3 407 238 240
3 393 218 242
3 408 243 245
3 409 246 248
3 226 225 249
3 271 250 252
3 410 253 255
3 234 233 257
3 252 251 259
3 411 412 413
3 242 241 264
3 284 265 267
3 414 415 416
3 257 256 271
3 259 258 273
3 417 418 419
3 264 263 278
3 267 266 280
3 420 421 422
3 278 277 284
3 273 272 286
3 423 287 289
3 280 279 291
3 424 425 426
3 286 285 296
3 427 297 299
3 291 290 301
3 428 429 430
3 296 295 306
3 431 432 433
3 301 300 310
3 434 311 313
3 375 306 172
3 435 436 437
