ply
format ascii 1.0
comment Created by Blender 2.76 (sub 0) - www.blender.org, source file: 'gizmoRotZ.blend'
element vertex 384
property float x
property float y
property float z
property float nx
property float ny
property float nz
property uchar red
property uchar green
property uchar blue
element face 128
property list uchar uint vertex_indices
end_header
60.880714 25.217701 -1.984504 -0.642293 -0.266030 -0.718772 0 0 255
64.630646 12.855906 -1.984504 -0.681845 -0.135624 -0.718772 0 0 255
64.630646 12.855904 1.984497 -0.681845 -0.135624 0.718772 0 0 255
60.880714 25.217701 1.984496 -0.642293 -0.266030 0.718772 0 0 255
-36.610321 -54.791222 -1.984496 0.386242 0.578051 -0.718772 0 0 255
-46.596100 -46.596100 -1.984496 0.491592 0.491592 -0.718772 0 0 255
-46.596100 -46.596100 1.984504 0.491592 0.491592 0.718772 0 0 255
-36.610321 -54.791222 1.984504 0.386242 0.578051 0.718772 0 0 255
54.791168 36.610390 -1.984504 -0.578051 -0.386242 -0.718772 0 0 255
54.791168 36.610390 1.984496 -0.578051 -0.386242 0.718772 0 0 255
-25.217617 -60.880749 -1.984496 0.266030 0.642293 -0.718772 0 0 255
-25.217617 -60.880749 1.984503 0.266030 0.642293 0.718772 0 0 255
-12.855835 64.630653 -1.984503 0.135624 -0.681845 -0.718772 0 0 255
-0.000000 65.896843 -1.984504 0.000000 -0.695212 -0.718772 0 0 255
0.000000 65.896843 1.984496 0.000000 -0.695212 0.718772 0 0 255
-12.855835 64.630653 1.984497 0.135624 -0.681845 0.718772 0 0 255
46.596046 46.596165 -1.984505 -0.491592 -0.491592 -0.718772 0 0 255
46.596046 46.596165 1.984496 -0.491592 -0.491592 0.718772 0 0 255
-12.855821 -64.630661 -1.984497 0.135624 0.681845 -0.718772 0 0 255
-12.855821 -64.630661 1.984504 0.135624 0.681845 0.718772 0 0 255
-25.217632 60.880737 -1.984502 0.266030 -0.642293 -0.718772 0 0 255
-25.217632 60.880737 1.984497 0.266030 -0.642293 0.718772 0 0 255
36.610252 54.791267 -1.984504 -0.386242 -0.578051 -0.718772 0 0 255
36.610252 54.791267 1.984495 -0.386242 -0.578051 0.718772 0 0 255
0.000021 -65.896843 -1.984497 0.000000 0.695212 -0.718772 0 0 255
0.000022 -65.896843 1.984503 0.000000 0.695212 0.718772 0 0 255
-36.610329 54.791214 -1.984502 0.386242 -0.578051 -0.718772 0 0 255
-36.610329 54.791214 1.984498 0.386242 -0.578051 0.718772 0 0 255
25.217541 60.880775 -1.984504 -0.266030 -0.642293 -0.718772 0 0 255
25.217541 60.880775 1.984495 -0.266030 -0.642293 0.718772 0 0 255
12.855862 -64.630653 -1.984497 -0.135624 0.681845 -0.718772 0 0 255
12.855862 -64.630653 1.984503 -0.135624 0.681845 0.718772 0 0 255
-46.596100 46.596100 -1.984501 0.491592 -0.491592 -0.718772 0 0 255
-46.596100 46.596100 1.984498 0.491592 -0.491592 0.718772 0 0 255
12.855736 64.630669 -1.984504 -0.135624 -0.681845 -0.718772 0 0 255
12.855736 64.630669 1.984496 -0.135624 -0.681845 0.718772 0 0 255
25.217657 -60.880726 -1.984498 -0.266030 0.642293 -0.718772 0 0 255
25.217657 -60.880726 1.984502 -0.266030 0.642293 0.718772 0 0 255
-54.791222 36.610321 -1.984500 0.578051 -0.386242 -0.718772 0 0 255
-54.791222 36.610321 1.984500 0.578051 -0.386242 0.718772 0 0 255
36.610355 -54.791199 -1.984499 -0.386242 0.578051 -0.718772 0 0 255
36.610355 -54.791199 1.984501 -0.386242 0.578051 0.718772 0 0 255
-60.880737 25.217628 -1.984499 0.642293 -0.266030 -0.718772 0 0 255
-60.880737 25.217628 1.984500 0.642293 -0.266030 0.718772 0 0 255
46.596130 -46.596069 -1.984499 -0.491592 0.491592 -0.718772 0 0 255
46.596130 -46.596069 1.984500 -0.491592 0.491592 0.718772 0 0 255
-64.630653 12.855838 -1.984499 0.681845 -0.135624 -0.718772 0 0 255
-64.630653 12.855837 1.984501 0.681845 -0.135624 0.718772 0 0 255
54.791252 -36.610283 -1.984500 -0.578051 0.386242 -0.718772 0 0 255
54.791252 -36.610283 1.984500 -0.578051 0.386242 0.718772 0 0 255
-65.896843 0.000005 -1.984498 0.695212 0.000000 -0.718772 0 0 255
-65.896843 0.000005 1.984502 0.695212 0.000000 0.718772 0 0 255
60.880760 -25.217579 -1.984501 -0.642293 0.266030 -0.718772 0 0 255
60.880760 -25.217579 1.984499 -0.642293 0.266030 0.718772 0 0 255
-64.630661 -12.855827 -1.984497 0.681845 0.135624 -0.718772 0 0 255
-64.630661 -12.855829 1.984503 0.681845 0.135624 0.718772 0 0 255
64.630661 -12.855778 -1.984502 -0.681845 0.135624 -0.718772 0 0 255
64.630661 -12.855780 1.984498 -0.681845 0.135624 0.718772 0 0 255
-60.880745 -25.217617 -1.984497 0.642293 0.266030 -0.718772 0 0 255
-60.880745 -25.217617 1.984503 0.642293 0.266030 0.718772 0 0 255
65.896843 0.000064 -1.984503 -0.695212 0.000000 -0.718772 0 0 255
65.896843 0.000063 1.984497 -0.695212 0.000000 0.718772 0 0 255
-54.791222 -36.610321 -1.984496 0.578051 0.386242 -0.718772 0 0 255
-54.791222 -36.610321 1.984503 0.578051 0.386242 0.718772 0 0 255
25.217657 -60.880726 1.984502 -0.008780 0.028945 0.999543 0 0 255
12.855862 -64.630653 1.984503 -0.008780 0.028945 0.999543 0 0 255
13.266422 -66.694664 2.047879 -0.008780 0.028945 0.999543 0 0 255
26.022995 -62.824982 2.047878 -0.008780 0.028945 0.999543 0 0 255
-60.880737 25.217628 -1.984499 0.028945 -0.008780 -0.999542 0 0 255
-64.630653 12.855838 -1.984499 0.028945 -0.008780 -0.999542 0 0 255
-66.694656 13.266395 -2.047875 0.028945 -0.008780 -0.999542 0 0 255
-62.824989 26.022964 -2.047876 0.028945 -0.008780 -0.999542 0 0 255
12.855862 -64.630653 1.984503 -0.002965 0.030101 0.999542 0 0 255
0.000022 -65.896843 1.984503 -0.002965 0.030101 0.999542 0 0 255
0.000023 -68.001289 2.047879 -0.002965 0.030101 0.999542 0 0 255
13.266422 -66.694664 2.047879 -0.002965 0.030101 0.999542 0 0 255
54.791168 36.610390 1.984496 -0.026676 -0.014258 0.999542 0 0 255
60.880714 25.217701 1.984496 -0.026676 -0.014258 0.999542 0 0 255
62.824963 26.023037 2.047872 -0.026676 -0.014258 0.999542 0 0 255
56.540955 37.779560 2.047872 -0.026676 -0.014258 0.999542 0 0 255
-46.596100 -46.596100 1.984504 0.023381 0.019189 0.999542 0 0 255
-54.791222 -36.610321 1.984503 0.023381 0.019189 0.999542 0 0 255
-56.541012 -37.779484 2.047879 0.023381 0.019189 0.999542 0 0 255
-48.084171 -48.084171 2.047880 0.023381 0.019189 0.999542 0 0 255
0.000022 -65.896843 1.984503 0.002965 0.030101 0.999542 0 0 255
-12.855821 -64.630661 1.984504 0.002965 0.030101 0.999542 0 0 255
-13.266376 -66.694672 2.047880 0.002965 0.030101 0.999542 0 0 255
0.000023 -68.001289 2.047879 0.002965 0.030101 0.999542 0 0 255
12.855736 64.630669 -1.984504 -0.002965 -0.030101 -0.999542 0 0 255
-0.000000 65.896843 -1.984504 -0.002965 -0.030101 -0.999542 0 0 255
0.000000 68.001289 -2.047880 -0.002965 -0.030101 -0.999542 0 0 255
13.266293 66.694687 -2.047880 -0.002965 -0.030101 -0.999542 0 0 255
-60.880745 -25.217617 1.984503 0.028945 0.008780 0.999543 0 0 255
-64.630661 -12.855829 1.984503 0.028945 0.008780 0.999543 0 0 255
-66.694672 -13.266388 2.047879 0.028945 0.008780 0.999543 0 0 255
-62.824997 -26.022955 2.047879 0.028945 0.008780 0.999543 0 0 255
-12.855821 -64.630661 1.984504 0.008780 0.028945 0.999542 0 0 255
-25.217617 -60.880749 1.984503 0.008780 0.028945 0.999542 0 0 255
-26.022955 -62.825008 2.047879 0.008780 0.028945 0.999542 0 0 255
-13.266376 -66.694672 2.047880 0.008780 0.028945 0.999542 0 0 255
-46.596100 46.596100 -1.984501 0.023381 -0.019189 -0.999542 0 0 255
-54.791222 36.610321 -1.984500 0.023381 -0.019189 -0.999542 0 0 255
-56.541012 37.779484 -2.047876 0.023381 -0.019189 -0.999542 0 0 255
-48.084171 48.084171 -2.047877 0.023381 -0.019189 -0.999542 0 0 255
-64.630661 -12.855829 1.984503 0.030101 0.002965 0.999542 0 0 255
-65.896843 0.000005 1.984502 0.030101 0.002965 0.999542 0 0 255
-68.001289 0.000004 2.047878 0.030101 0.002965 0.999542 0 0 255
-66.694672 -13.266388 2.047879 0.030101 0.002965 0.999542 0 0 255
-25.217617 -60.880749 1.984503 0.014258 0.026676 0.999542 0 0 255
-36.610321 -54.791222 1.984504 0.014258 0.026676 0.999542 0 0 255
-37.779491 -56.541008 2.047880 0.014258 0.026676 0.999542 0 0 255
-26.022955 -62.825008 2.047879 0.014258 0.026676 0.999542 0 0 255
64.630646 12.855904 1.984497 -0.030101 -0.002965 0.999543 0 0 255
65.896843 0.000063 1.984497 -0.030101 -0.002965 0.999543 0 0 255
68.001289 0.000065 2.047873 -0.030101 -0.002965 0.999543 0 0 255
66.694656 13.266463 2.047872 -0.030101 -0.002965 0.999543 0 0 255
-65.896843 0.000005 1.984502 0.030102 -0.002965 0.999542 0 0 255
-64.630653 12.855837 1.984501 0.030102 -0.002965 0.999542 0 0 255
-66.694656 13.266395 2.047877 0.030102 -0.002965 0.999542 0 0 255
-68.001289 0.000004 2.047878 0.030102 -0.002965 0.999542 0 0 255
-36.610321 -54.791222 1.984504 0.019189 0.023381 0.999542 0 0 255
-46.596100 -46.596100 1.984504 0.019189 0.023381 0.999542 0 0 255
-48.084171 -48.084171 2.047880 0.019189 0.023381 0.999542 0 0 255
-37.779491 -56.541008 2.047880 0.019189 0.023381 0.999542 0 0 255
36.610252 54.791267 -1.984504 -0.014259 -0.026676 -0.999542 0 0 255
25.217541 60.880775 -1.984504 -0.014259 -0.026676 -0.999542 0 0 255
26.022875 62.825043 -2.047880 -0.014259 -0.026676 -0.999542 0 0 255
37.779411 56.541058 -2.047881 -0.014259 -0.026676 -0.999542 0 0 255
-64.630653 12.855837 1.984501 0.028945 -0.008780 0.999542 0 0 255
-60.880737 25.217628 1.984500 0.028945 -0.008780 0.999542 0 0 255
-62.824989 26.022964 2.047876 0.028945 -0.008780 0.999542 0 0 255
-66.694656 13.266395 2.047877 0.028945 -0.008780 0.999542 0 0 255
-54.791222 -36.610321 1.984503 0.026676 0.014258 0.999543 0 0 255
-60.880745 -25.217617 1.984503 0.026676 0.014258 0.999543 0 0 255
-62.824997 -26.022955 2.047879 0.026676 0.014258 0.999543 0 0 255
-56.541012 -37.779484 2.047879 0.026676 0.014258 0.999543 0 0 255
-25.217632 60.880737 -1.984502 0.014258 -0.026676 -0.999542 0 0 255
-36.610329 54.791214 -1.984502 0.014258 -0.026676 -0.999542 0 0 255
-37.779495 56.541000 -2.047878 0.014258 -0.026676 -0.999542 0 0 255
-26.022968 62.824986 -2.047879 0.014258 -0.026676 -0.999542 0 0 255
-60.880737 25.217628 1.984500 0.026676 -0.014258 0.999542 0 0 255
-54.791222 36.610321 1.984500 0.026676 -0.014258 0.999542 0 0 255
-56.541012 37.779484 2.047876 0.026676 -0.014258 0.999542 0 0 255
-62.824989 26.022964 2.047876 0.026676 -0.014258 0.999542 0 0 255
64.630661 -12.855780 1.984498 -0.028945 0.008780 0.999542 0 0 255
60.880760 -25.217579 1.984499 -0.028945 0.008780 0.999542 0 0 255
62.825020 -26.022919 2.047875 -0.028945 0.008780 0.999542 0 0 255
66.694672 -13.266335 2.047874 -0.028945 0.008780 0.999542 0 0 255
-60.880745 -25.217617 -1.984497 0.026676 0.014258 -0.999543 0 0 255
-54.791222 -36.610321 -1.984496 0.026676 0.014258 -0.999543 0 0 255
-56.541012 -37.779484 -2.047873 0.026676 0.014258 -0.999543 0 0 255
-62.824997 -26.022955 -2.047873 0.026676 0.014258 -0.999543 0 0 255
54.791168 36.610390 -1.984504 -0.023381 -0.019189 -0.999542 0 0 255
46.596046 46.596165 -1.984505 -0.023381 -0.019189 -0.999542 0 0 255
48.084114 48.084236 -2.047880 -0.023381 -0.019189 -0.999542 0 0 255
56.540955 37.779560 -2.047880 -0.023381 -0.019189 -0.999542 0 0 255
12.855736 64.630669 1.984496 -0.008780 -0.028944 0.999542 0 0 255
25.217541 60.880775 1.984495 -0.008780 -0.028944 0.999542 0 0 255
26.022875 62.825043 2.047871 -0.008780 -0.028944 0.999542 0 0 255
13.266293 66.694687 2.047871 -0.008780 -0.028944 0.999542 0 0 255
-0.000000 65.896843 -1.984504 0.002965 -0.030102 -0.999542 0 0 255
-12.855835 64.630653 -1.984503 0.002965 -0.030102 -0.999542 0 0 255
-13.266394 66.694656 -2.047880 0.002965 -0.030102 -0.999542 0 0 255
0.000000 68.001289 -2.047880 0.002965 -0.030102 -0.999542 0 0 255
-46.596100 46.596100 1.984498 0.019189 -0.023381 0.999543 0 0 255
-36.610329 54.791214 1.984498 0.019189 -0.023381 0.999543 0 0 255
-37.779495 56.541000 2.047874 0.019189 -0.023381 0.999543 0 0 255
-48.084171 48.084171 2.047875 0.019189 -0.023381 0.999543 0 0 255
54.791252 -36.610283 1.984500 -0.023381 0.019188 0.999542 0 0 255
46.596130 -46.596069 1.984500 -0.023381 0.019188 0.999542 0 0 255
48.084206 -48.084148 2.047876 -0.023381 0.019188 0.999542 0 0 255
56.541031 -37.779449 2.047875 -0.023381 0.019188 0.999542 0 0 255
-65.896843 0.000005 -1.984498 0.030102 0.002965 -0.999542 0 0 255
-64.630661 -12.855827 -1.984497 0.030102 0.002965 -0.999542 0 0 255
-66.694672 -13.266388 -2.047873 0.030102 0.002965 -0.999542 0 0 255
-68.001289 0.000005 -2.047874 0.030102 0.002965 -0.999542 0 0 255
46.596130 -46.596069 1.984500 -0.019188 0.023381 0.999542 0 0 255
36.610355 -54.791199 1.984501 -0.019188 0.023381 0.999542 0 0 255
37.779526 -56.540977 2.047877 -0.019188 0.023381 0.999542 0 0 255
48.084206 -48.084148 2.047876 -0.019188 0.023381 0.999542 0 0 255
36.610252 54.791267 1.984495 -0.019188 -0.023381 0.999542 0 0 255
46.596046 46.596165 1.984496 -0.019188 -0.023381 0.999542 0 0 255
48.084114 48.084236 2.047871 -0.019188 -0.023381 0.999542 0 0 255
37.779411 56.541058 2.047871 -0.019188 -0.023381 0.999542 0 0 255
36.610355 -54.791199 1.984501 -0.014258 0.026676 0.999542 0 0 255
25.217657 -60.880726 1.984502 -0.014258 0.026676 0.999542 0 0 255
26.022995 -62.824982 2.047878 -0.014258 0.026676 0.999542 0 0 255
37.779526 -56.540977 2.047877 -0.014258 0.026676 0.999542 0 0 255
-25.217632 60.880737 1.984497 0.008780 -0.028945 0.999542 0 0 255
-12.855835 64.630653 1.984497 0.008780 -0.028945 0.999542 0 0 255
-13.266394 66.694656 2.047872 0.008780 -0.028945 0.999542 0 0 255
-26.022968 62.824986 2.047873 0.008780 -0.028945 0.999542 0 0 255
37.779526 -56.540977 -2.047875 0.398938 -0.597064 -0.695914 0 0 255
37.779526 -56.540977 2.047877 0.398938 -0.597064 0.695914 0 0 255
26.022995 -62.824982 2.047878 0.274789 -0.663442 0.695914 0 0 255
26.022995 -62.824982 -2.047874 0.274789 -0.663442 -0.695914 0 0 255
65.896843 0.000063 1.984497 -0.030101 0.002965 0.999542 0 0 255
64.630661 -12.855780 1.984498 -0.030101 0.002965 0.999542 0 0 255
66.694672 -13.266335 2.047874 -0.030101 0.002965 0.999542 0 0 255
68.001289 0.000065 2.047873 -0.030101 0.002965 0.999542 0 0 255
0.000000 68.001289 -2.047880 0.000000 0.718101 -0.695914 0 0 255
0.000001 68.001289 2.047872 0.000000 0.718101 0.695914 0 0 255
13.266293 66.694687 2.047871 0.140080 0.704306 0.695914 0 0 255
13.266293 66.694687 -2.047880 0.140080 0.704306 -0.695914 0 0 255
46.596046 46.596165 -1.984505 -0.019189 -0.023381 -0.999542 0 0 255
36.610252 54.791267 -1.984504 -0.019189 -0.023381 -0.999542 0 0 255
37.779411 56.541058 -2.047881 -0.019189 -0.023381 -0.999542 0 0 255
48.084114 48.084236 -2.047880 -0.019189 -0.023381 -0.999542 0 0 255
-56.541012 37.779484 -2.047876 -0.597064 0.398938 -0.695914 0 0 255
-56.541012 37.779484 2.047876 -0.597064 0.398938 0.695914 0 0 255
-48.084171 48.084171 2.047875 -0.507767 0.507767 0.695914 0 0 255
-48.084171 48.084171 -2.047877 -0.507767 0.507767 -0.695914 0 0 255
-12.855835 64.630653 -1.984503 0.008780 -0.028945 -0.999542 0 0 255
-25.217632 60.880737 -1.984502 0.008780 -0.028945 -0.999542 0 0 255
-26.022968 62.824986 -2.047879 0.008780 -0.028945 -0.999542 0 0 255
-13.266394 66.694656 -2.047880 0.008780 -0.028945 -0.999542 0 0 255
13.266422 -66.694664 2.047879 0.140080 -0.704306 0.695914 0 0 255
13.266422 -66.694664 -2.047873 0.140080 -0.704306 -0.695914 0 0 255
60.880760 -25.217579 1.984499 -0.026675 0.014258 0.999542 0 0 255
54.791252 -36.610283 1.984500 -0.026675 0.014258 0.999542 0 0 255
56.541031 -37.779449 2.047875 -0.026675 0.014258 0.999542 0 0 255
62.825020 -26.022919 2.047875 -0.026675 0.014258 0.999542 0 0 255
26.022875 62.825043 2.047871 0.274789 0.663442 0.695914 0 0 255
26.022875 62.825043 -2.047880 0.274789 0.663442 -0.695914 0 0 255
60.880714 25.217701 -1.984504 -0.026676 -0.014259 -0.999542 0 0 255
54.791168 36.610390 -1.984504 -0.026676 -0.014259 -0.999542 0 0 255
56.540955 37.779560 -2.047880 -0.026676 -0.014259 -0.999542 0 0 255
62.824963 26.023037 -2.047880 -0.026676 -0.014259 -0.999542 0 0 255
-37.779495 56.541000 2.047874 -0.398938 0.597064 0.695914 0 0 255
-37.779495 56.541000 -2.047878 -0.398938 0.597064 -0.695914 0 0 255
64.630646 12.855906 -1.984504 -0.028945 -0.008780 -0.999542 0 0 255
60.880714 25.217701 -1.984504 -0.028945 -0.008780 -0.999542 0 0 255
62.824963 26.023037 -2.047880 -0.028945 -0.008780 -0.999542 0 0 255
66.694656 13.266463 -2.047879 -0.028945 -0.008780 -0.999542 0 0 255
0.000023 -68.001289 2.047879 0.000000 -0.718101 0.695914 0 0 255
0.000022 -68.001289 -2.047873 0.000000 -0.718101 -0.695914 0 0 255
65.896843 0.000064 -1.984503 -0.030101 -0.002965 -0.999542 0 0 255
64.630646 12.855906 -1.984504 -0.030101 -0.002965 -0.999542 0 0 255
66.694656 13.266463 -2.047879 -0.030101 -0.002965 -0.999542 0 0 255
68.001289 0.000065 -2.047879 -0.030101 -0.002965 -0.999542 0 0 255
37.779411 56.541058 2.047871 0.398938 0.597064 0.695914 0 0 255
37.779411 56.541058 -2.047881 0.398938 0.597064 -0.695914 0 0 255
64.630661 -12.855778 -1.984502 -0.030102 0.002965 -0.999542 0 0 255
65.896843 0.000064 -1.984503 -0.030102 0.002965 -0.999542 0 0 255
68.001289 0.000065 -2.047879 -0.030102 0.002965 -0.999542 0 0 255
66.694672 -13.266335 -2.047878 -0.030102 0.002965 -0.999542 0 0 255
-26.022968 62.824986 2.047873 -0.274789 0.663442 0.695914 0 0 255
-26.022968 62.824986 -2.047879 -0.274789 0.663442 -0.695914 0 0 255
60.880760 -25.217579 -1.984501 -0.028945 0.008780 -0.999542 0 0 255
64.630661 -12.855778 -1.984502 -0.028945 0.008780 -0.999542 0 0 255
66.694672 -13.266335 -2.047878 -0.028945 0.008780 -0.999542 0 0 255
62.825020 -26.022919 -2.047877 -0.028945 0.008780 -0.999542 0 0 255
12.855862 -64.630653 -1.984497 -0.008780 0.028945 -0.999543 0 0 255
25.217657 -60.880726 -1.984498 -0.008780 0.028945 -0.999543 0 0 255
26.022995 -62.824982 -2.047874 -0.008780 0.028945 -0.999543 0 0 255
13.266422 -66.694664 -2.047873 -0.008780 0.028945 -0.999543 0 0 255
-13.266376 -66.694672 2.047880 -0.140080 -0.704306 0.695914 0 0 255
-13.266376 -66.694672 -2.047873 -0.140080 -0.704306 -0.695914 0 0 255
54.791252 -36.610283 -1.984500 -0.026676 0.014258 -0.999542 0 0 255
60.880760 -25.217579 -1.984501 -0.026676 0.014258 -0.999542 0 0 255
62.825020 -26.022919 -2.047877 -0.026676 0.014258 -0.999542 0 0 255
56.541031 -37.779449 -2.047876 -0.026676 0.014258 -0.999542 0 0 255
-12.855821 -64.630661 -1.984497 0.002965 0.030101 -0.999542 0 0 255
0.000021 -65.896843 -1.984497 0.002965 0.030101 -0.999542 0 0 255
0.000022 -68.001289 -2.047873 0.002965 0.030101 -0.999542 0 0 255
-13.266376 -66.694672 -2.047873 0.002965 0.030101 -0.999542 0 0 255
48.084114 48.084236 2.047871 0.507767 0.507767 0.695914 0 0 255
48.084114 48.084236 -2.047880 0.507767 0.507767 -0.695914 0 0 255
46.596130 -46.596069 -1.984499 -0.023381 0.019189 -0.999542 0 0 255
54.791252 -36.610283 -1.984500 -0.023381 0.019189 -0.999542 0 0 255
56.541031 -37.779449 -2.047876 -0.023381 0.019189 -0.999542 0 0 255
48.084206 -48.084148 -2.047876 -0.023381 0.019189 -0.999542 0 0 255
-25.217617 -60.880749 -1.984496 0.008780 0.028945 -0.999542 0 0 255
-12.855821 -64.630661 -1.984497 0.008780 0.028945 -0.999542 0 0 255
-13.266376 -66.694672 -2.047873 0.008780 0.028945 -0.999542 0 0 255
-26.022955 -62.825008 -2.047872 0.008780 0.028945 -0.999542 0 0 255
-13.266394 66.694656 2.047872 -0.140080 0.704306 0.695914 0 0 255
-13.266394 66.694656 -2.047880 -0.140080 0.704306 -0.695914 0 0 255
36.610355 -54.791199 -1.984499 -0.019189 0.023381 -0.999542 0 0 255
46.596130 -46.596069 -1.984499 -0.019189 0.023381 -0.999542 0 0 255
48.084206 -48.084148 -2.047876 -0.019189 0.023381 -0.999542 0 0 255
37.779526 -56.540977 -2.047875 -0.019189 0.023381 -0.999542 0 0 255
-36.610321 -54.791222 -1.984496 0.014258 0.026676 -0.999542 0 0 255
-25.217617 -60.880749 -1.984496 0.014258 0.026676 -0.999542 0 0 255
-26.022955 -62.825008 -2.047872 0.014258 0.026676 -0.999542 0 0 255
-37.779491 -56.541008 -2.047872 0.014258 0.026676 -0.999542 0 0 255
-26.022955 -62.825008 2.047879 -0.274789 -0.663442 0.695914 0 0 255
-26.022955 -62.825008 -2.047872 -0.274789 -0.663442 -0.695914 0 0 255
25.217657 -60.880726 -1.984498 -0.014258 0.026676 -0.999542 0 0 255
36.610355 -54.791199 -1.984499 -0.014258 0.026676 -0.999542 0 0 255
37.779526 -56.540977 -2.047875 -0.014258 0.026676 -0.999542 0 0 255
26.022995 -62.824982 -2.047874 -0.014258 0.026676 -0.999542 0 0 255
-46.596100 -46.596100 -1.984496 0.019189 0.023381 -0.999542 0 0 255
-36.610321 -54.791222 -1.984496 0.019189 0.023381 -0.999542 0 0 255
-37.779491 -56.541008 -2.047872 0.019189 0.023381 -0.999542 0 0 255
-48.084171 -48.084171 -2.047872 0.019189 0.023381 -0.999542 0 0 255
56.540955 37.779560 2.047872 0.597064 0.398938 0.695914 0 0 255
56.540955 37.779560 -2.047880 0.597064 0.398938 -0.695914 0 0 255
0.000021 -65.896843 -1.984497 -0.002965 0.030101 -0.999543 0 0 255
12.855862 -64.630653 -1.984497 -0.002965 0.030101 -0.999543 0 0 255
13.266422 -66.694664 -2.047873 -0.002965 0.030101 -0.999543 0 0 255
0.000022 -68.001289 -2.047873 -0.002965 0.030101 -0.999543 0 0 255
-54.791222 -36.610321 -1.984496 0.023381 0.019189 -0.999542 0 0 255
-46.596100 -46.596100 -1.984496 0.023381 0.019189 -0.999542 0 0 255
-48.084171 -48.084171 -2.047872 0.023381 0.019189 -0.999542 0 0 255
-56.541012 -37.779484 -2.047873 0.023381 0.019189 -0.999542 0 0 255
-48.084171 -48.084171 -2.047872 -0.507767 -0.507767 -0.695914 0 0 255
-48.084171 -48.084171 2.047880 -0.507767 -0.507767 0.695914 0 0 255
-56.541012 -37.779484 2.047879 -0.597064 -0.398938 0.695914 0 0 255
-56.541012 -37.779484 -2.047873 -0.597064 -0.398938 -0.695914 0 0 255
0.000000 65.896843 1.984496 -0.002965 -0.030101 0.999542 0 0 255
12.855736 64.630669 1.984496 -0.002965 -0.030101 0.999542 0 0 255
13.266293 66.694687 2.047871 -0.002965 -0.030101 0.999542 0 0 255
0.000001 68.001289 2.047872 -0.002965 -0.030101 0.999542 0 0 255
-37.779491 -56.541008 2.047880 -0.398938 -0.597064 0.695914 0 0 255
-37.779491 -56.541008 -2.047872 -0.398938 -0.597064 -0.695914 0 0 255
-62.824997 -26.022955 2.047879 -0.663442 -0.274789 0.695914 0 0 255
-62.824997 -26.022955 -2.047873 -0.663442 -0.274789 -0.695914 0 0 255
-54.791222 36.610321 1.984500 0.023382 -0.019189 0.999542 0 0 255
-46.596100 46.596100 1.984498 0.023382 -0.019189 0.999542 0 0 255
-48.084171 48.084171 2.047875 0.023382 -0.019189 0.999542 0 0 255
-56.541012 37.779484 2.047876 0.023382 -0.019189 0.999542 0 0 255
62.824963 26.023037 2.047872 0.663442 0.274789 0.695914 0 0 255
62.824963 26.023037 -2.047880 0.663442 0.274789 -0.695914 0 0 255
68.001289 0.000065 -2.047879 0.718101 0.000000 -0.695914 0 0 255
68.001289 0.000065 2.047873 0.718101 0.000000 0.695914 0 0 255
66.694672 -13.266335 2.047874 0.704306 -0.140080 0.695914 0 0 255
66.694672 -13.266335 -2.047878 0.704306 -0.140080 -0.695914 0 0 255
-64.630661 -12.855827 -1.984497 0.028945 0.008780 -0.999542 0 0 255
-60.880745 -25.217617 -1.984497 0.028945 0.008780 -0.999542 0 0 255
-62.824997 -26.022955 -2.047873 0.028945 0.008780 -0.999542 0 0 255
-66.694672 -13.266388 -2.047873 0.028945 0.008780 -0.999542 0 0 255
-66.694672 -13.266388 2.047879 -0.704306 -0.140080 0.695914 0 0 255
-66.694672 -13.266388 -2.047873 -0.704306 -0.140080 -0.695914 0 0 255
25.217541 60.880775 1.984495 -0.014258 -0.026675 0.999542 0 0 255
36.610252 54.791267 1.984495 -0.014258 -0.026675 0.999542 0 0 255
37.779411 56.541058 2.047871 -0.014258 -0.026675 0.999542 0 0 255
26.022875 62.825043 2.047871 -0.014258 -0.026675 0.999542 0 0 255
66.694656 13.266463 2.047872 0.704306 0.140080 0.695914 0 0 255
66.694656 13.266463 -2.047879 0.704306 0.140080 -0.695914 0 0 255
62.825020 -26.022919 2.047875 0.663442 -0.274789 0.695914 0 0 255
62.825020 -26.022919 -2.047877 0.663442 -0.274789 -0.695914 0 0 255
-36.610329 54.791214 1.984498 0.014258 -0.026676 0.999542 0 0 255
-25.217632 60.880737 1.984497 0.014258 -0.026676 0.999542 0 0 255
-26.022968 62.824986 2.047873 0.014258 -0.026676 0.999542 0 0 255
-37.779495 56.541000 2.047874 0.014258 -0.026676 0.999542 0 0 255
-68.001289 0.000004 2.047878 -0.718101 0.000000 0.695914 0 0 255
-68.001289 0.000005 -2.047874 -0.718101 0.000000 -0.695914 0 0 255
-64.630653 12.855838 -1.984499 0.030102 -0.002965 -0.999542 0 0 255
-65.896843 0.000005 -1.984498 0.030102 -0.002965 -0.999542 0 0 255
-68.001289 0.000005 -2.047874 0.030102 -0.002965 -0.999542 0 0 255
-66.694656 13.266395 -2.047875 0.030102 -0.002965 -0.999542 0 0 255
56.541031 -37.779449 2.047875 0.597064 -0.398938 0.695914 0 0 255
56.541031 -37.779449 -2.047876 0.597064 -0.398938 -0.695914 0 0 255
46.596046 46.596165 1.984496 -0.023381 -0.019188 0.999542 0 0 255
54.791168 36.610390 1.984496 -0.023381 -0.019188 0.999542 0 0 255
56.540955 37.779560 2.047872 -0.023381 -0.019188 0.999542 0 0 255
48.084114 48.084236 2.047871 -0.023381 -0.019188 0.999542 0 0 255
-66.694656 13.266395 2.047877 -0.704306 0.140080 0.695914 0 0 255
-66.694656 13.266395 -2.047875 -0.704306 0.140080 -0.695914 0 0 255
-12.855835 64.630653 1.984497 0.002965 -0.030101 0.999542 0 0 255
0.000000 65.896843 1.984496 0.002965 -0.030101 0.999542 0 0 255
0.000001 68.001289 2.047872 0.002965 -0.030101 0.999542 0 0 255
-13.266394 66.694656 2.047872 0.002965 -0.030101 0.999542 0 0 255
48.084206 -48.084148 2.047876 0.507767 -0.507767 0.695914 0 0 255
48.084206 -48.084148 -2.047876 0.507767 -0.507767 -0.695914 0 0 255
-54.791222 36.610321 -1.984500 0.026676 -0.014258 -0.999542 0 0 255
-60.880737 25.217628 -1.984499 0.026676 -0.014258 -0.999542 0 0 255
-62.824989 26.022964 -2.047876 0.026676 -0.014258 -0.999542 0 0 255
-56.541012 37.779484 -2.047876 0.026676 -0.014258 -0.999542 0 0 255
-62.824989 26.022964 2.047876 -0.663442 0.274789 0.695914 0 0 255
-62.824989 26.022964 -2.047876 -0.663442 0.274789 -0.695914 0 0 255
60.880714 25.217701 1.984496 -0.028945 -0.008780 0.999543 0 0 255
64.630646 12.855904 1.984497 -0.028945 -0.008780 0.999543 0 0 255
66.694656 13.266463 2.047872 -0.028945 -0.008780 0.999543 0 0 255
62.824963 26.023037 2.047872 -0.028945 -0.008780 0.999543 0 0 255
25.217541 60.880775 -1.984504 -0.008780 -0.028945 -0.999542 0 0 255
12.855736 64.630669 -1.984504 -0.008780 -0.028945 -0.999542 0 0 255
13.266293 66.694687 -2.047880 -0.008780 -0.028945 -0.999542 0 0 255
26.022875 62.825043 -2.047880 -0.008780 -0.028945 -0.999542 0 0 255
-36.610329 54.791214 -1.984502 0.019189 -0.023381 -0.999543 0 0 255
-46.596100 46.596100 -1.984501 0.019189 -0.023381 -0.999543 0 0 255
-48.084171 48.084171 -2.047877 0.019189 -0.023381 -0.999543 0 0 255
-37.779495 56.541000 -2.047878 0.019189 -0.023381 -0.999543 0 0 255
4 0 1 2 3
4 4 5 6 7
4 8 0 3 9
4 10 4 7 11
4 12 13 14 15
4 16 8 9 17
4 18 10 11 19
4 20 12 15 21
4 22 16 17 23
4 24 18 19 25
4 26 20 21 27
4 28 22 23 29
4 30 24 25 31
4 32 26 27 33
4 34 28 29 35
4 36 30 31 37
4 38 32 33 39
4 13 34 35 14
4 40 36 37 41
4 42 38 39 43
4 44 40 41 45
4 46 42 43 47
4 48 44 45 49
4 50 46 47 51
4 52 48 49 53
4 54 50 51 55
4 56 52 53 57
4 58 54 55 59
4 60 56 57 61
4 62 58 59 63
4 1 60 61 2
4 5 62 63 6
4 64 65 66 67
4 68 69 70 71
4 72 73 74 75
4 76 77 78 79
4 80 81 82 83
4 84 85 86 87
4 88 89 90 91
4 92 93 94 95
4 96 97 98 99
4 100 101 102 103
4 104 105 106 107
4 108 109 110 111
4 112 113 114 115
4 116 117 118 119
4 120 121 122 123
4 124 125 126 127
4 128 129 130 131
4 132 133 134 135
4 136 137 138 139
4 140 141 142 143
4 144 145 146 147
4 148 149 150 151
4 152 153 154 155
4 156 157 158 159
4 160 161 162 163
4 164 165 166 167
4 168 169 170 171
4 172 173 174 175
4 176 177 178 179
4 180 181 182 183
4 184 185 186 187
4 188 189 190 191
4 192 193 194 195
4 196 197 198 199
4 200 201 202 203
4 204 205 206 207
4 208 209 210 211
4 212 213 214 215
4 195 194 216 217
4 218 219 220 221
4 203 202 222 223
4 224 225 226 227
4 211 210 228 229
4 230 231 232 233
4 217 216 234 235
4 236 237 238 239
4 223 222 240 241
4 242 243 244 245
4 229 228 246 247
4 248 249 250 251
4 252 253 254 255
4 235 234 256 257
4 258 259 260 261
4 262 263 264 265
4 241 240 266 267
4 268 269 270 271
4 272 273 274 275
4 247 246 276 277
4 278 279 280 281
4 282 283 284 285
4 257 256 286 287
4 288 289 290 291
4 292 293 294 295
4 267 266 296 297
4 298 299 300 301
4 302 303 304 305
4 277 276 201 200
4 306 307 308 309
4 310 311 312 313
4 287 286 314 315
4 309 308 316 317
4 318 319 320 321
4 297 296 322 323
4 324 325 326 327
4 328 329 330 331
4 315 314 307 306
4 317 316 332 333
4 334 335 336 337
4 323 322 338 339
4 327 326 340 341
4 342 343 344 345
4 339 338 325 324
4 333 332 346 347
4 348 349 350 351
4 341 340 352 353
4 354 355 356 357
4 347 346 358 359
4 360 361 362 363
4 353 352 364 365
4 366 367 368 369
4 359 358 370 371
4 372 373 374 375
4 365 364 193 192
4 376 377 378 379
4 371 370 209 208
4 380 381 382 383
