# Blender v2.80 (sub 39) OBJ File: 'skybox.blend'
# www.blender.org
mtllib skybox.mtl.mtl
o Skybox
v -100.000000 -100.000000 100.000000
v -100.000000 100.000000 100.000000
v -100.000000 -100.000000 -100.000000
v -100.000000 100.000000 -100.000000
v 100.000000 -100.000000 100.000000
v 100.000000 100.000000 100.000000
v 100.000000 -100.000000 -100.000000
v 100.000000 100.000000 -100.000000
vt 0.998500 0.001500
vt 0.998500 0.998500
vt 0.001500 0.998500
vt 0.001500 0.001500
vt 0.998500 0.001500
vt 0.998500 0.998500
vt 0.001500 0.998500
vt 0.001500 0.001500
vt 0.998500 0.001500
vt 0.998500 0.998500
vt 0.001500 0.998500
vt 0.001500 0.001500
vt 0.998500 0.001500
vt 0.998500 0.998500
vt 0.001500 0.998500
vt 0.001500 0.001500
vt 0.998500 0.998500
vt 0.001500 0.998500
vt 0.001500 0.001500
vt 0.998500 0.001500
vn 0.0000 0.0000 -1.0000
vn 0.0000 0.0000 1.0000
vn 1.0000 0.0000 0.0000
vn -1.0000 0.0000 0.0000
vn 0.0000 -1.0000 0.0000
vn 0.0000 1.0000 0.0000
usemtl Front
s off
f 6/1/1 5/2/1 1/3/1 2/4/1
usemtl Back
f 4/5/2 3/6/2 7/7/2 8/8/2
usemtl Right
f 2/9/3 1/10/3 3/11/3 4/12/3
usemtl Left
f 8/13/4 7/14/4 5/15/4 6/16/4
usemtl Top
f 6/17/5 2/18/5 4/12/5 8/13/5
usemtl Bottom
f 1/19/6 5/20/6 7/14/6 3/11/6
