# Blender v2.76 (sub 0) OBJ File: 'text180.blend'
# www.blender.org
o Text
v 0.385668 0.000000 0.296699
v 0.406602 0.000000 0.296699
v 0.475380 0.000000 0.282722
v 0.531703 0.000000 0.244666
v 0.569759 0.000000 0.188343
v 0.583736 0.000000 0.119565
v 0.583736 0.000000 -0.118760
v 0.569759 0.000000 -0.188003
v 0.531703 0.000000 -0.244565
v 0.475380 0.000000 -0.282709
v 0.406602 0.000000 -0.296699
v 0.385668 0.000000 -0.296699
v 0.316891 0.000000 -0.282709
v 0.260568 0.000000 -0.244565
v 0.222512 0.000000 -0.188003
v 0.208535 0.000000 -0.118760
v 0.208535 0.000000 0.119565
v 0.222512 0.000000 0.188343
v 0.260568 0.000000 0.244666
v 0.316891 0.000000 0.282722
v 0.385668 0.000000 -0.245974
v 0.406602 0.000000 -0.245974
v 0.455566 0.000000 -0.235948
v 0.495773 0.000000 -0.208635
v 0.522997 0.000000 -0.168189
v 0.533011 0.000000 -0.118760
v 0.533011 0.000000 0.119565
v 0.522997 0.000000 0.168529
v 0.495773 0.000000 0.208736
v 0.455566 0.000000 0.235960
v 0.406602 0.000000 0.245974
v 0.385668 0.000000 0.245974
v 0.336705 0.000000 0.235960
v 0.296498 0.000000 0.208736
v 0.269273 0.000000 0.168529
v 0.259259 0.000000 0.119565
v 0.259259 0.000000 -0.118760
v 0.269273 0.000000 -0.168189
v 0.296498 0.000000 -0.208635
v 0.336705 0.000000 -0.235948
v -0.008857 0.000000 -0.029388
v 0.020418 0.000000 -0.042057
v 0.044787 0.000000 -0.065519
v 0.061456 0.000000 -0.099701
v 0.067633 0.000000 -0.144525
v 0.067633 0.000000 -0.149356
v 0.056046 0.000000 -0.206685
v 0.024457 0.000000 -0.253523
v -0.022381 0.000000 -0.285112
v -0.079710 0.000000 -0.296699
v -0.119968 0.000000 -0.296699
v -0.177297 0.000000 -0.285112
v -0.224134 0.000000 -0.253523
v -0.255724 0.000000 -0.206685
v -0.267311 0.000000 -0.149356
v -0.267311 0.000000 -0.144525
v -0.261134 0.000000 -0.099701
v -0.244465 0.000000 -0.065519
v -0.220096 0.000000 -0.042057
v -0.190821 0.000000 -0.029388
v -0.222562 0.000000 -0.021387
v -0.253925 0.000000 0.002617
v -0.277891 0.000000 0.042623
v -0.287440 0.000000 0.098631
v -0.287440 0.000000 0.163849
v -0.276985 0.000000 0.215517
v -0.248490 0.000000 0.257750
v -0.206258 0.000000 0.286244
v -0.154589 0.000000 0.296699
v -0.045089 0.000000 0.296699
v 0.006580 0.000000 0.286244
v 0.048812 0.000000 0.257750
v 0.077307 0.000000 0.215517
v 0.087762 0.000000 0.163849
v 0.087762 0.000000 0.098631
v 0.078213 0.000000 0.042623
v 0.054247 0.000000 0.002617
v 0.022884 0.000000 -0.021387
v -0.216586 0.000000 -0.144525
v -0.216586 0.000000 -0.149356
v -0.208962 0.000000 -0.186871
v -0.188204 0.000000 -0.217593
v -0.157483 0.000000 -0.238350
v -0.119968 0.000000 -0.245974
v -0.079710 0.000000 -0.245974
v -0.042195 0.000000 -0.238350
v -0.011473 0.000000 -0.217593
v 0.009284 0.000000 -0.186871
v 0.016908 0.000000 -0.149356
v 0.016908 0.000000 -0.144525
v 0.009284 0.000000 -0.107010
v -0.011473 0.000000 -0.076288
v -0.042195 0.000000 -0.055530
v -0.079710 0.000000 -0.047907
v -0.119968 0.000000 -0.047907
v -0.157483 0.000000 -0.055530
v -0.188205 0.000000 -0.076288
v -0.208962 0.000000 -0.107010
v 0.037037 0.000000 0.158213
v 0.030118 0.000000 0.192306
v 0.011272 0.000000 0.220209
v -0.016631 0.000000 0.239055
v -0.050725 0.000000 0.245974
v -0.148953 0.000000 0.245974
v -0.183046 0.000000 0.239055
v -0.210950 0.000000 0.220209
v -0.229796 0.000000 0.192306
v -0.236715 0.000000 0.158213
v -0.236715 0.000000 0.098631
v -0.229091 0.000000 0.061242
v -0.208333 0.000000 0.030797
v -0.177612 0.000000 0.010316
v -0.140097 0.000000 0.002818
v -0.059581 0.000000 0.002818
v -0.022066 0.000000 0.010316
v 0.008655 0.000000 0.030797
v 0.029413 0.000000 0.061242
v 0.037037 0.000000 0.098631
v -0.458937 0.000000 0.283816
v -0.457943 0.000000 0.288886
v -0.455213 0.000000 0.292975
v -0.451125 0.000000 0.295705
v -0.446055 0.000000 0.296699
v -0.421095 0.000000 0.296699
v -0.416025 0.000000 0.295705
v -0.411936 0.000000 0.292975
v -0.409206 0.000000 0.288886
v -0.408213 0.000000 0.283816
v -0.408213 0.000000 -0.283816
v -0.409206 0.000000 -0.288886
v -0.411936 0.000000 -0.292975
v -0.416025 0.000000 -0.295705
v -0.421095 0.000000 -0.296699
v -0.464573 0.000000 -0.296699
v -0.469253 0.000000 -0.296259
v -0.473631 0.000000 -0.294988
v -0.477707 0.000000 -0.292962
v -0.481482 0.000000 -0.290258
v -0.578905 0.000000 -0.199275
v -0.581748 0.000000 -0.195149
v -0.582931 0.000000 -0.190419
v -0.582302 0.000000 -0.185688
v -0.579710 0.000000 -0.181562
v -0.570853 0.000000 -0.171900
v -0.566941 0.000000 -0.168604
v -0.562500 0.000000 -0.166063
v -0.557606 0.000000 -0.164427
v -0.552335 0.000000 -0.163849
v -0.552335 0.000000 -0.163849
v -0.552335 0.000000 -0.163849
v -0.552335 0.000000 -0.163849
v -0.552335 0.000000 -0.163849
v -0.547542 0.000000 -0.164302
v -0.542975 0.000000 -0.165660
v -0.538861 0.000000 -0.167925
v -0.535427 0.000000 -0.171095
v -0.458937 0.000000 -0.241948
vn 0.000000 1.000000 0.000000
s off
f 13//1 11//1 12//1
f 13//1 10//1 11//1
f 13//1 9//1 10//1
f 14//1 21//1 13//1
f 21//1 22//1 13//1
f 22//1 9//1 13//1
f 14//1 40//1 21//1
f 23//1 9//1 22//1
f 23//1 8//1 9//1
f 15//1 40//1 14//1
f 15//1 39//1 40//1
f 24//1 8//1 23//1
f 15//1 38//1 39//1
f 25//1 8//1 24//1
f 25//1 7//1 8//1
f 16//1 38//1 15//1
f 16//1 37//1 38//1
f 26//1 7//1 25//1
f 17//1 37//1 16//1
f 17//1 36//1 37//1
f 27//1 7//1 26//1
f 27//1 6//1 7//1
f 18//1 36//1 17//1
f 18//1 35//1 36//1
f 28//1 6//1 27//1
f 28//1 5//1 6//1
f 29//1 5//1 28//1
f 18//1 34//1 35//1
f 19//1 34//1 18//1
f 29//1 4//1 5//1
f 19//1 33//1 34//1
f 30//1 4//1 29//1
f 19//1 32//1 33//1
f 31//1 4//1 30//1
f 20//1 32//1 19//1
f 31//1 3//1 4//1
f 20//1 31//1 32//1
f 20//1 3//1 31//1
f 1//1 3//1 20//1
f 1//1 2//1 3//1
f 52//1 50//1 51//1
f 52//1 49//1 50//1
f 53//1 49//1 52//1
f 53//1 48//1 49//1
f 54//1 83//1 53//1
f 83//1 84//1 53//1
f 84//1 48//1 53//1
f 84//1 85//1 48//1
f 85//1 86//1 48//1
f 86//1 47//1 48//1
f 54//1 82//1 83//1
f 87//1 47//1 86//1
f 54//1 81//1 82//1
f 88//1 47//1 87//1
f 55//1 81//1 54//1
f 88//1 46//1 47//1
f 55//1 80//1 81//1
f 89//1 46//1 88//1
f 56//1 80//1 55//1
f 56//1 79//1 80//1
f 90//1 46//1 89//1
f 90//1 45//1 46//1
f 57//1 79//1 56//1
f 57//1 98//1 79//1
f 91//1 45//1 90//1
f 91//1 44//1 45//1
f 57//1 97//1 98//1
f 92//1 44//1 91//1
f 92//1 43//1 44//1
f 58//1 97//1 57//1
f 58//1 96//1 97//1
f 93//1 43//1 92//1
f 93//1 42//1 43//1
f 59//1 96//1 58//1
f 59//1 95//1 96//1
f 94//1 42//1 93//1
f 59//1 94//1 95//1
f 59//1 42//1 94//1
f 59//1 41//1 42//1
f 60//1 41//1 59//1
f 61//1 41//1 60//1
f 61//1 78//1 41//1
f 62//1 78//1 61//1
f 62//1 77//1 78//1
f 63//1 112//1 62//1
f 112//1 113//1 62//1
f 113//1 77//1 62//1
f 113//1 114//1 77//1
f 114//1 115//1 77//1
f 115//1 76//1 77//1
f 63//1 111//1 112//1
f 116//1 76//1 115//1
f 63//1 110//1 111//1
f 117//1 76//1 116//1
f 64//1 110//1 63//1
f 117//1 75//1 76//1
f 64//1 109//1 110//1
f 118//1 75//1 117//1
f 65//1 109//1 64//1
f 65//1 108//1 109//1
f 99//1 75//1 118//1
f 99//1 74//1 75//1
f 65//1 107//1 108//1
f 100//1 74//1 99//1
f 66//1 107//1 65//1
f 100//1 73//1 74//1
f 66//1 106//1 107//1
f 101//1 73//1 100//1
f 67//1 106//1 66//1
f 101//1 72//1 73//1
f 67//1 105//1 106//1
f 102//1 72//1 101//1
f 67//1 104//1 105//1
f 103//1 72//1 102//1
f 67//1 103//1 104//1
f 67//1 72//1 103//1
f 68//1 72//1 67//1
f 68//1 71//1 72//1
f 69//1 71//1 68//1
f 69//1 70//1 71//1
f 135//1 133//1 134//1
f 135//1 132//1 133//1
f 136//1 132//1 135//1
f 136//1 131//1 132//1
f 137//1 131//1 136//1
f 137//1 130//1 131//1
f 138//1 130//1 137//1
f 139//1 130//1 138//1
f 139//1 129//1 130//1
f 139//1 157//1 129//1
f 157//1 128//1 129//1
f 139//1 156//1 157//1
f 119//1 128//1 157//1
f 140//1 156//1 139//1
f 141//1 156//1 140//1
f 142//1 156//1 141//1
f 143//1 156//1 142//1
f 144//1 156//1 143//1
f 145//1 156//1 144//1
f 145//1 155//1 156//1
f 146//1 155//1 145//1
f 146//1 154//1 155//1
f 147//1 154//1 146//1
f 147//1 153//1 154//1
f 148//1 153//1 147//1
f 120//1 128//1 119//1
f 120//1 127//1 128//1
f 121//1 127//1 120//1
f 121//1 126//1 127//1
f 122//1 126//1 121//1
f 122//1 125//1 126//1
f 123//1 125//1 122//1
f 123//1 124//1 125//1
