# Blender v2.76 (sub 0) OBJ File: 'text270.blend'
# www.blender.org
o Text
v 0.435185 0.000000 0.296699
v 0.456119 0.000000 0.296699
v 0.524897 0.000000 0.282722
v 0.581220 0.000000 0.244666
v 0.619276 0.000000 0.188343
v 0.633253 0.000000 0.119565
v 0.633253 0.000000 -0.118760
v 0.619276 0.000000 -0.188003
v 0.581220 0.000000 -0.244565
v 0.524897 0.000000 -0.282709
v 0.456119 0.000000 -0.296699
v 0.435185 0.000000 -0.296699
v 0.366408 0.000000 -0.282709
v 0.310085 0.000000 -0.244565
v 0.272028 0.000000 -0.188003
v 0.258052 0.000000 -0.118760
v 0.258052 0.000000 0.119565
v 0.272028 0.000000 0.188343
v 0.310085 0.000000 0.244666
v 0.366408 0.000000 0.282722
v 0.435185 0.000000 -0.245974
v 0.456119 0.000000 -0.245974
v 0.505083 0.000000 -0.235948
v 0.545290 0.000000 -0.208635
v 0.572514 0.000000 -0.168189
v 0.582528 0.000000 -0.118760
v 0.582528 0.000000 0.119565
v 0.572514 0.000000 0.168529
v 0.545290 0.000000 0.208736
v 0.505082 0.000000 0.235960
v 0.456119 0.000000 0.245974
v 0.435185 0.000000 0.245974
v 0.386222 0.000000 0.235960
v 0.346014 0.000000 0.208736
v 0.318790 0.000000 0.168529
v 0.308776 0.000000 0.119565
v 0.308776 0.000000 -0.118760
v 0.318790 0.000000 -0.168189
v 0.346014 0.000000 -0.208635
v 0.386222 0.000000 -0.235948
v -0.093800 0.000000 0.278986
v -0.094983 0.000000 0.285490
v -0.092995 0.000000 0.291163
v -0.088592 0.000000 0.295177
v -0.082528 0.000000 0.296699
v -0.063205 0.000000 0.296699
v -0.055707 0.000000 0.295554
v -0.049114 0.000000 0.292371
v -0.043730 0.000000 0.287528
v -0.039855 0.000000 0.281401
v 0.175926 0.000000 -0.221014
v 0.176517 0.000000 -0.223430
v 0.177033 0.000000 -0.225845
v 0.177398 0.000000 -0.228261
v 0.177536 0.000000 -0.230676
v 0.177536 0.000000 -0.270934
v 0.175561 0.000000 -0.281074
v 0.170189 0.000000 -0.289251
v 0.162251 0.000000 -0.294711
v 0.152576 0.000000 -0.296699
v -0.172705 0.000000 -0.296699
v -0.182380 0.000000 -0.294711
v -0.190318 0.000000 -0.289251
v -0.195690 0.000000 -0.281074
v -0.197665 0.000000 -0.270934
v -0.197665 0.000000 -0.258857
v -0.196671 0.000000 -0.253787
v -0.193941 0.000000 -0.249698
v -0.189853 0.000000 -0.246968
v -0.184783 0.000000 -0.245974
v 0.130837 0.000000 -0.245974
v -0.608293 0.000000 0.296699
v -0.270934 0.000000 0.296699
v -0.265864 0.000000 0.295705
v -0.261775 0.000000 0.292975
v -0.259045 0.000000 0.288886
v -0.258052 0.000000 0.283816
v -0.258052 0.000000 0.271739
v -0.260027 0.000000 0.261599
v -0.265399 0.000000 0.253422
v -0.273337 0.000000 0.247962
v -0.283011 0.000000 0.245974
v -0.582528 0.000000 0.245974
v -0.582528 0.000000 0.129227
v -0.574904 0.000000 0.091712
v -0.554147 0.000000 0.060990
v -0.523425 0.000000 0.040232
v -0.485910 0.000000 0.032609
v -0.405395 0.000000 0.032609
v -0.348065 0.000000 0.021148
v -0.301228 0.000000 -0.010165
v -0.269638 0.000000 -0.056726
v -0.258052 0.000000 -0.113929
v -0.258052 0.000000 -0.149356
v -0.269638 0.000000 -0.206685
v -0.301228 0.000000 -0.253523
v -0.348065 0.000000 -0.285112
v -0.405395 0.000000 -0.296699
v -0.485910 0.000000 -0.296699
v -0.543239 0.000000 -0.285112
v -0.590077 0.000000 -0.253523
v -0.621666 0.000000 -0.206685
v -0.633253 0.000000 -0.149356
v -0.633253 0.000000 -0.137279
v -0.632259 0.000000 -0.132209
v -0.629529 0.000000 -0.128120
v -0.625440 0.000000 -0.125390
v -0.620370 0.000000 -0.124396
v -0.608293 0.000000 -0.124396
v -0.598153 0.000000 -0.126371
v -0.589976 0.000000 -0.131743
v -0.584516 0.000000 -0.139681
v -0.582528 0.000000 -0.149356
v -0.574904 0.000000 -0.186871
v -0.554147 0.000000 -0.217593
v -0.523425 0.000000 -0.238350
v -0.485910 0.000000 -0.245974
v -0.405395 0.000000 -0.245974
v -0.367540 0.000000 -0.238350
v -0.336856 0.000000 -0.217593
v -0.316287 0.000000 -0.186871
v -0.308776 0.000000 -0.149356
v -0.308776 0.000000 -0.113929
v -0.316287 0.000000 -0.076540
v -0.336856 0.000000 -0.046095
v -0.367540 0.000000 -0.025614
v -0.405395 0.000000 -0.018116
v -0.485910 0.000000 -0.018116
v -0.543239 0.000000 -0.006529
v -0.590077 0.000000 0.025060
v -0.621666 0.000000 0.071898
v -0.633253 0.000000 0.129227
v -0.633253 0.000000 0.271739
v -0.631278 0.000000 0.281414
v -0.625906 0.000000 0.289352
v -0.617968 0.000000 0.294724
vn 0.000000 1.000000 0.000000
s off
f 13//1 11//1 12//1
f 13//1 10//1 11//1
f 13//1 9//1 10//1
f 14//1 21//1 13//1
f 21//1 22//1 13//1
f 22//1 9//1 13//1
f 14//1 40//1 21//1
f 23//1 9//1 22//1
f 23//1 8//1 9//1
f 15//1 40//1 14//1
f 15//1 39//1 40//1
f 24//1 8//1 23//1
f 15//1 38//1 39//1
f 25//1 8//1 24//1
f 25//1 7//1 8//1
f 16//1 38//1 15//1
f 16//1 37//1 38//1
f 26//1 7//1 25//1
f 17//1 37//1 16//1
f 17//1 36//1 37//1
f 27//1 7//1 26//1
f 27//1 6//1 7//1
f 18//1 36//1 17//1
f 18//1 35//1 36//1
f 28//1 6//1 27//1
f 28//1 5//1 6//1
f 29//1 5//1 28//1
f 18//1 34//1 35//1
f 19//1 34//1 18//1
f 29//1 4//1 5//1
f 19//1 33//1 34//1
f 30//1 4//1 29//1
f 19//1 32//1 33//1
f 31//1 4//1 30//1
f 20//1 32//1 19//1
f 31//1 3//1 4//1
f 20//1 31//1 32//1
f 20//1 3//1 31//1
f 1//1 3//1 20//1
f 1//1 2//1 3//1
f 62//1 60//1 61//1
f 62//1 59//1 60//1
f 63//1 59//1 62//1
f 63//1 58//1 59//1
f 64//1 58//1 63//1
f 64//1 57//1 58//1
f 65//1 57//1 64//1
f 65//1 56//1 57//1
f 66//1 56//1 65//1
f 66//1 71//1 56//1
f 71//1 55//1 56//1
f 67//1 71//1 66//1
f 68//1 71//1 67//1
f 69//1 71//1 68//1
f 70//1 71//1 69//1
f 41//1 55//1 71//1
f 41//1 54//1 55//1
f 41//1 53//1 54//1
f 41//1 52//1 53//1
f 41//1 51//1 52//1
f 41//1 50//1 51//1
f 42//1 50//1 41//1
f 42//1 49//1 50//1
f 43//1 49//1 42//1
f 43//1 48//1 49//1
f 44//1 48//1 43//1
f 44//1 47//1 48//1
f 45//1 47//1 44//1
f 45//1 46//1 47//1
f 100//1 98//1 99//1
f 100//1 97//1 98//1
f 101//1 97//1 100//1
f 101//1 96//1 97//1
f 102//1 116//1 101//1
f 116//1 117//1 101//1
f 117//1 96//1 101//1
f 117//1 118//1 96//1
f 118//1 119//1 96//1
f 119//1 95//1 96//1
f 102//1 115//1 116//1
f 120//1 95//1 119//1
f 102//1 114//1 115//1
f 121//1 95//1 120//1
f 103//1 114//1 102//1
f 121//1 94//1 95//1
f 103//1 113//1 114//1
f 122//1 94//1 121//1
f 104//1 113//1 103//1
f 104//1 112//1 113//1
f 123//1 94//1 122//1
f 123//1 93//1 94//1
f 104//1 111//1 112//1
f 105//1 111//1 104//1
f 106//1 111//1 105//1
f 106//1 110//1 111//1
f 107//1 110//1 106//1
f 107//1 109//1 110//1
f 108//1 109//1 107//1
f 124//1 93//1 123//1
f 124//1 92//1 93//1
f 125//1 92//1 124//1
f 125//1 91//1 92//1
f 126//1 91//1 125//1
f 127//1 91//1 126//1
f 129//1 127//1 128//1
f 129//1 91//1 127//1
f 129//1 90//1 91//1
f 130//1 90//1 129//1
f 130//1 89//1 90//1
f 131//1 87//1 130//1
f 87//1 88//1 130//1
f 88//1 89//1 130//1
f 131//1 86//1 87//1
f 131//1 85//1 86//1
f 132//1 85//1 131//1
f 132//1 84//1 85//1
f 133//1 84//1 132//1
f 133//1 83//1 84//1
f 133//1 82//1 83//1
f 133//1 81//1 82//1
f 133//1 80//1 81//1
f 133//1 79//1 80//1
f 133//1 78//1 79//1
f 134//1 78//1 133//1
f 134//1 77//1 78//1
f 135//1 77//1 134//1
f 135//1 76//1 77//1
f 135//1 75//1 76//1
f 136//1 75//1 135//1
f 136//1 74//1 75//1
f 72//1 74//1 136//1
f 72//1 73//1 74//1
